<svg id="visual" viewBox="0 0 900 200" width="900" height="200" xmlns="http://www.w3.org/2000/svg" xmlns:xlink="http://www.w3.org/1999/xlink" version="1.1"><rect x="0" y="0" width="900" height="200" fill="#93818E"></rect><path d="M0 129L9.3 123.2C18.7 117.3 37.3 105.7 56.2 106.2C75 106.7 94 119.3 112.8 111.2C131.7 103 150.3 74 169 79C187.7 84 206.3 123 225 123.2C243.7 123.3 262.3 84.7 281.2 75C300 65.3 319 84.7 337.8 97.3C356.7 110 375.3 116 394 105.7C412.7 95.3 431.3 68.7 450 63C468.7 57.3 487.3 72.7 506.2 86.7C525 100.7 544 113.3 562.8 108.3C581.7 103.3 600.3 80.7 619 65.7C637.7 50.7 656.3 43.3 675 43C693.7 42.7 712.3 49.3 731.2 67.3C750 85.3 769 114.7 787.8 121.7C806.7 128.7 825.3 113.3 844 99.7C862.7 86 881.3 74 890.7 68L900 62L900 201L890.7 201C881.3 201 862.7 201 844 201C825.3 201 806.7 201 787.8 201C769 201 750 201 731.2 201C712.3 201 693.7 201 675 201C656.3 201 637.7 201 619 201C600.3 201 581.7 201 562.8 201C544 201 525 201 506.2 201C487.3 201 468.7 201 450 201C431.3 201 412.7 201 394 201C375.3 201 356.7 201 337.8 201C319 201 300 201 281.2 201C262.3 201 243.7 201 225 201C206.3 201 187.7 201 169 201C150.3 201 131.7 201 112.8 201C94 201 75 201 56.2 201C37.3 201 18.7 201 9.3 201L0 201Z" fill="#FAF9FA" stroke-linecap="round" stroke-linejoin="miter"></path></svg>