<?xml version="1.0" encoding="utf-8"?>
<!-- Generator: Adobe Illustrator 25.2.0, SVG Export Plug-In . SVG Version: 6.00 Build 0)  -->
<svg version="1.1" id="Layer_1" xmlns="http://www.w3.org/2000/svg" xmlns:xlink="http://www.w3.org/1999/xlink" x="0px" y="0px"
	 viewBox="0 0 800 800" style="enable-background:new 0 0 800 800;" xml:space="preserve">
<style type="text/css">
	.st0{fill:#314691;}
	.st1{fill:#FFFFFF;}
	.st2{fill:url(#SVGID_1_);}
	.st3{fill:url(#SVGID_2_);}
	.st4{fill:url(#SVGID_3_);}
	.st5{fill:url(#SVGID_4_);}
	.st6{fill:url(#SVGID_5_);}
	.st7{fill:url(#SVGID_6_);}
	.st8{fill:url(#SVGID_7_);}
	.st9{fill:url(#SVGID_8_);}
	.st10{fill:url(#SVGID_9_);}
	.st11{fill:url(#SVGID_10_);}
	.st12{fill:url(#SVGID_11_);}
	.st13{fill:url(#SVGID_12_);}
	.st14{fill:url(#SVGID_13_);}
	.st15{fill:url(#SVGID_14_);}
	.st16{fill:url(#SVGID_15_);}
	.st17{fill:url(#SVGID_16_);}
	.st18{fill:url(#SVGID_17_);}
	.st19{fill:url(#SVGID_18_);}
	.st20{fill:url(#SVGID_19_);}
	.st21{fill:url(#SVGID_20_);}
	.st22{fill:url(#SVGID_21_);}
	.st23{fill:url(#SVGID_22_);}
	.st24{fill:url(#SVGID_23_);}
	.st25{fill:url(#SVGID_24_);}
	.st26{fill:url(#SVGID_25_);}
	.st27{fill:url(#SVGID_26_);}
	.st28{fill:url(#SVGID_27_);}
	.st29{fill:url(#SVGID_28_);}
	.st30{fill:url(#SVGID_29_);}
	.st31{fill:url(#SVGID_30_);}
	.st32{fill:url(#SVGID_31_);}
	.st33{fill:url(#SVGID_32_);}
	.st34{fill:url(#SVGID_33_);}
	.st35{fill:url(#SVGID_34_);}
	.st36{fill:url(#SVGID_35_);}
	.st37{fill:url(#SVGID_36_);}
	.st38{fill:url(#SVGID_37_);}
	.st39{fill:url(#SVGID_38_);}
	.st40{fill:url(#SVGID_39_);}
	.st41{fill:url(#SVGID_40_);}
	.st42{fill:url(#SVGID_41_);}
	.st43{fill:url(#SVGID_42_);}
	.st44{fill:url(#SVGID_43_);}
	.st45{fill:url(#SVGID_44_);}
	.st46{fill:url(#SVGID_45_);}
	.st47{fill:url(#SVGID_46_);}
	.st48{fill:url(#SVGID_47_);}
	.st49{fill:url(#SVGID_48_);}
	.st50{fill:url(#SVGID_49_);}
	.st51{fill:url(#SVGID_50_);}
	.st52{fill:url(#SVGID_51_);}
	.st53{fill:url(#SVGID_52_);}
	.st54{fill:url(#SVGID_53_);}
	.st55{fill:url(#SVGID_54_);}
	.st56{fill:url(#SVGID_55_);}
	.st57{fill:url(#SVGID_56_);}
	.st58{fill:url(#SVGID_57_);}
	.st59{fill:url(#SVGID_58_);}
	.st60{fill:url(#SVGID_59_);}
	.st61{fill:url(#SVGID_60_);}
	.st62{fill:url(#SVGID_61_);}
	.st63{fill:url(#SVGID_62_);}
	.st64{fill:url(#SVGID_63_);}
	.st65{fill:url(#SVGID_64_);}
	.st66{fill:url(#SVGID_65_);}
	.st67{fill:url(#SVGID_66_);}
	.st68{fill:url(#SVGID_67_);}
	.st69{fill:url(#SVGID_68_);}
	.st70{fill:url(#SVGID_69_);}
	.st71{fill:url(#SVGID_70_);}
	.st72{fill:url(#SVGID_71_);}
	.st73{fill:url(#SVGID_72_);}
	.st74{fill:url(#SVGID_73_);}
	.st75{fill:url(#SVGID_74_);}
	.st76{fill:url(#SVGID_75_);}
</style>
<g>
	<g>
		<g>
			<g>
				<path d="M141.7,367.32c-0.32-0.32-0.74-0.48-1.32-0.48h-0.9v-1.8h8.41v1.8H147c-0.58,0-1.01,0.16-1.32,0.42
					c-0.37,0.32-0.74,1.38-0.79,3.02v28.68h-2.65l-2.12-3.02l-18.36-25.03v22.75c0,1.54,0.27,2.49,0.79,3.02
					c0.32,0.32,0.74,0.48,1.32,0.48h0.9v1.8h-8.36v-1.8h0.74c0.05,0,0.05,0,0.05,0c0.63,0,1.06-0.16,1.38-0.48
					c0.53-0.53,0.79-1.54,0.79-3.07v-23.39c0-1.59-0.26-2.54-0.79-3.07c-0.32-0.32-0.74-0.48-1.32-0.48h-0.9v-1.8h8.1l0.21,0.32
					l17.78,24.4v-19.42c0-1.54-0.26-2.49-0.79-3.02L141.7,367.32z"/>
				<path d="M154.51,396.74c0.53-0.53,0.79-1.53,0.79-3.07v-23.39c0-1.59-0.26-2.54-0.79-3.07c-0.32-0.32-0.74-0.48-1.32-0.48h-0.9
					v-1.8h23.65v6.77h-1.8l-0.21-0.48c-1.16-2.91-3.39-4.13-7.41-4.13h-5.34v12.28h3.97c3.28,0,4.87-0.63,5.66-2.33l0.32-0.64h1.8
					V385h-1.8l-0.32-0.69c-0.85-1.96-2.38-2.7-5.72-2.7h-3.97v15.08h6.35c2.75,0,4.55-0.58,5.82-1.91c0.26-0.26,0.79-1.01,1.64-2.91
					l0.16-0.32h1.8v7.41h-24.66v-1.8h0.9c0.58,0,1.01-0.16,1.32-0.48L154.51,396.74z"/>
				<path d="M191.07,368.17c-0.1,0.26-0.16,0.58-0.21,0.95c-0.05,0.42-0.11,0.9-0.11,1.38c0,1.32,0,13.18,0,14.5
					c0,1.48,0.05,2.75,0.21,3.97c0.21,1.85,0.63,3.34,1.22,4.34s1.43,1.85,2.54,2.54c1.06,0.63,2.38,0.95,3.97,0.95
					c1.69,0,4.02-0.26,5.77-1.38c1.59-1.06,2.7-2.43,3.28-4.07c0.58-1.53,0.58-4.55,0.58-8.04v-12.49c0-1.75-0.26-2.86-0.9-3.44
					c-0.37-0.37-0.9-0.53-1.64-0.53h-0.11h-0.9v-1.8h9.58v1.8h-0.58c-0.37,0-0.63,0-0.69,0c-0.53,0.05-0.9,0.21-1.22,0.53
					c-0.58,0.58-0.85,1.69-0.85,3.49v12.22c0,3.76-0.05,6.61-0.69,8.68c-0.63,2.06-1.9,3.86-3.76,5.34
					c-1.8,1.43-4.71,2.28-8.04,2.28c-1.53,0-3.23-0.21-4.76-0.58c-2.8-0.69-5.13-2.28-6.56-4.45c-0.69-1.06-1.16-2.28-1.48-3.6
					c-0.58-2.43-0.63-5.08-0.69-7.41v-0.05c-0.05-1.64-0.05-5.4-0.05-8.26v-4.76c0-2.75-0.74-3.39-1.85-3.49h-1.11v-1.8h11.85v1.8
					c0,0-0.95,0-1.01,0c-0.32,0-0.63,0.05-0.9,0.16c-0.16,0.05-0.32,0.16-0.42,0.32c-0.16,0.16-0.26,0.37-0.37,0.64L191.07,368.17z"
					/>
				<path d="M220.22,396.96c0.53-0.48,0.79-1.48,0.79-3.02v-23.39c0-1.54-0.26-2.54-0.79-3.07c-0.32-0.32-0.74-0.48-1.27-0.48h-0.9
					v-1.8h15.03c3.81,0,6.77,0.79,8.89,2.33c2.12,1.53,3.23,3.86,3.23,6.72c0,2.59-0.95,4.82-2.81,6.46
					c-1.69,1.48-4.02,2.43-6.93,2.86c1.27,0.74,2.38,1.75,3.44,3.02c0.26,0.32,0.53,0.64,0.74,0.95l0.63,0.9l0.9,1.22
					c1.01,1.43,2.06,2.91,3.28,4.29l0.1,0.1c0.9,1.06,2.43,2.75,4.23,3.07l0.63,0.11v1.8h-0.58c0,0-2.33,0-3.28,0h-0.74
					c-2.38,0-4.18-0.74-5.66-2.28c-1.32-1.38-2.28-3.28-3.33-5.45l-0.05-0.1c-0.58-1.11-1.01-2.01-1.53-2.96
					c-0.74-1.32-1.64-2.43-2.7-3.34c-0.42-0.37-0.9-0.69-1.38-1.01c-0.05,0-0.11,0-0.16-0.05l-0.16-0.11
					c-0.05-0.05-0.16-0.11-0.26-0.16h-2.91v10.06c0,1.59,0.27,2.54,0.79,3.07c0.32,0.32,0.74,0.48,1.32,0.48h0.9v1.8h-11.85v-1.8
					h0.74c0.05,0,0.11,0,0.16,0c0.63,0,1.06-0.16,1.38-0.48L220.22,396.96z M226.89,367.43v14.24h4.92c4.5,0,7.2-2.75,7.2-7.36
					c0-4.5-2.06-6.88-5.93-6.88H226.89z"/>
				<path d="M251.55,381.72c0-5.24,1.9-9.58,5.66-12.91c3.23-2.86,7.14-4.34,11.64-4.34c4.5,0,8.41,1.64,11.69,4.92
					c3.28,3.28,4.92,7.41,4.92,12.28c0,5.03-1.69,9.26-4.98,12.6c-3.28,3.33-7.36,5.03-12.07,5.03c-4.76,0-8.78-1.64-12.01-4.87
					c-3.23-3.23-4.87-7.46-4.87-12.6V381.72z M261.23,369.81c-2.22,2.65-3.33,6.61-3.33,11.75c0,5.29,1.16,9.42,3.49,12.22
					c1.75,2.12,4.13,3.18,7.04,3.18c3.07,0,5.66-1.16,7.67-3.49c2.01-2.33,3.02-6.09,3.02-11.17c0-5.5-1.16-9.68-3.44-12.44
					c-1.75-2.12-4.23-3.18-7.36-3.18c-2.96,0-5.34,1.06-7.09,3.18V369.81z"/>
				<path d="M309.75,393.68v-23.39c0-1.59-0.26-2.54-0.79-3.07c-0.32-0.32-0.74-0.48-1.32-0.48h-0.9v-1.8h11.85v1.8h-0.9
					c-0.53,0-0.95,0.16-1.27,0.42c-0.53,0.53-0.79,1.53-0.79,3.07v23.39c0,1.53,0.26,2.54,0.79,3.07c0.32,0.32,0.74,0.48,1.32,0.48
					h0.9v1.8h-11.85v-1.8h0.79c0.63,0,1.06-0.16,1.38-0.48C309.49,396.22,309.75,395.21,309.75,393.68z"/>
				<path d="M348.43,367.32c-0.32-0.32-0.74-0.48-1.32-0.48h-0.9v-1.8h8.41v1.8h-0.9c-0.58,0-1.01,0.16-1.32,0.42
					c-0.37,0.32-0.74,1.38-0.79,3.02v28.68h-2.65l-2.12-3.02l-18.36-25.03v22.75c0,1.54,0.27,2.49,0.79,3.02
					c0.32,0.32,0.74,0.48,1.32,0.48h0.9v1.8h-8.36v-1.8h0.74c0.05,0,0.05,0,0.05,0c0.63,0,1.06-0.16,1.38-0.48
					c0.53-0.53,0.79-1.54,0.79-3.07v-23.39c0-1.59-0.26-2.54-0.79-3.07c-0.32-0.32-0.74-0.48-1.32-0.48h-0.9v-1.8h8.1l0.21,0.32
					l17.78,24.4v-19.42c0-1.54-0.26-2.49-0.79-3.02L348.43,367.32z"/>
				<path d="M376.37,364.68c0.63,0,1.32,0.05,2.01,0.11c1.43,0.1,2.81,0.32,4.13,0.63c0.74,0.16,1.48,0.37,2.22,0.58l0.21,0.05
					c0.1,0,0.21,0.05,0.32,0.11c0.16,0.05,0.37,0.1,0.58,0.16c0.26,0.05,0.48,0.11,0.63,0.11c0.37,0,0.53-0.32,0.53-0.32h1.69v9.1
					h-1.8l-0.16-0.53c-0.1-0.27-0.21-0.53-0.32-0.79l-0.05-0.11c-0.95-2.06-2.17-4.34-3.97-5.4c-1.69-0.95-3.65-1.48-5.5-1.48
					c-3.17,0-5.82,1.06-7.83,3.12c-2.54,2.59-3.92,6.77-3.81,11.48c0.05,3.02,0.69,6.14,1.69,8.36c1.16,2.49,2.7,4.34,4.55,5.5
					c0.63,0.37,1.32,0.69,2.01,0.95c1.38,0.53,2.96,0.79,4.6,0.79c1.22,0,2.38-0.16,3.49-0.48c0.85-0.21,1.69-0.63,2.65-1.27
					c0.74-0.53,1.48-1.27,2.17-2.17c0.37-0.48,0.74-1.01,1.06-1.59l0.63-1.22l1.59,0.42l-0.16,0.69l-1.43,5.77l-0.37,0.11
					c-1.06,0.37-2.12,0.74-2.7,0.9c-1.85,0.48-3.81,0.95-5.77,1.06c-0.37,0-0.74,0-1.22,0c-2.91,0-7.14-0.42-10.69-2.33
					c-1.75-0.95-3.33-2.33-4.66-3.97c-2.38-3.02-3.7-7.36-3.54-11.64c0.21-6.09,3.44-11.59,8.68-14.71c2.96-1.75,6.4-2.12,8.78-2.12
					L376.37,364.68z"/>
				<path d="M409.65,396.69c3.97,0,5.98-1.16,7.2-4.13l0.42-1.01h1.54v7.41h-13.23h-11.27v-1.8h0.79c0.63,0,1.06-0.16,1.38-0.48
					c0.53-0.48,0.79-1.48,0.79-3.02v-23.39c0-1.59-0.26-2.54-0.79-3.07c-0.32-0.32-0.74-0.48-1.32-0.48h-0.9v-1.8h11.85v1.8h-0.9
					c-0.53,0-0.95,0.16-1.27,0.42c-0.53,0.53-0.79,1.53-0.79,3.07v26.46h6.46H409.65z"/>
				<path d="M432.62,368.17c-0.1,0.26-0.16,0.58-0.21,0.95c-0.05,0.42-0.11,0.9-0.11,1.38c0,1.32,0,13.18,0,14.5
					c0,1.48,0.05,2.75,0.21,3.97c0.21,1.85,0.63,3.34,1.22,4.34s1.43,1.85,2.54,2.54c1.06,0.63,2.38,0.95,3.97,0.95
					c1.69,0,4.02-0.26,5.77-1.38c1.59-1.06,2.7-2.43,3.28-4.07c0.58-1.53,0.58-4.55,0.58-8.04v-12.49c0-1.75-0.26-2.86-0.9-3.44
					c-0.37-0.37-0.9-0.53-1.64-0.53h-0.11h-0.9v-1.8h9.58v1.8h-0.58c-0.37,0-0.63,0-0.69,0c-0.53,0.05-0.9,0.21-1.22,0.53
					c-0.58,0.58-0.85,1.69-0.85,3.49v12.22c0,3.76-0.05,6.61-0.69,8.68c-0.64,2.06-1.91,3.86-3.76,5.34
					c-1.8,1.43-4.71,2.28-8.04,2.28c-1.53,0-3.23-0.21-4.76-0.58c-2.8-0.69-5.13-2.28-6.56-4.45c-0.69-1.06-1.16-2.28-1.48-3.6
					c-0.58-2.43-0.63-5.08-0.69-7.41v-0.05c-0.05-1.64-0.05-5.4-0.05-8.26v-4.76c0-2.75-0.74-3.39-1.85-3.49h-1.11v-1.8h11.85v1.8
					c0,0-0.95,0-1.01,0c-0.32,0-0.63,0.05-0.9,0.16c-0.16,0.05-0.32,0.16-0.42,0.32c-0.16,0.16-0.26,0.37-0.37,0.64L432.62,368.17z"
					/>
				<path d="M483.47,383.46c1.64,1.59,2.54,3.6,2.54,5.82c0,1.22-0.26,2.38-0.79,3.6c-1.16,2.65-3.76,4.23-5.19,4.92
					c-2.06,1.01-4.44,1.54-6.93,1.54c-1.48,0-2.96-0.21-4.39-0.58c-2.75-0.74-5.13-1.8-5.29-1.85c-0.58-0.21-0.95,0.32-0.95,0.32
					h-1.53v-9.68h1.69l0.16,0.53c1.27,4.29,3.23,6.93,5.93,8.15c0.95,0.42,2.01,0.69,3.02,0.79c0.37,0.05,0.74,0.05,1.11,0.05
					c2.54,0,5.72-0.9,7.09-3.39c1.59-2.86,0-5.66-2.28-7.14c-1.27-0.85-2.75-1.38-4.02-1.8l-1.48-0.53
					c-3.49-1.22-7.41-2.59-9.69-5.5c-2.17-2.81-1.96-7.25,0.48-10.16c0.79-0.9,1.8-1.75,2.86-2.33c1.9-1.11,4.23-1.69,6.93-1.69
					h0.05c2.12,0,4.39,0.37,6.51,1.01c0.42,0.16,1.53,0.53,1.53,0.53c0.58,0.21,0.95-0.32,0.95-0.32h0.42h1.11v2.28v6.62h-1.69
					l-0.16-0.48c-0.42-1.27-1.8-3.97-2.96-5.29c-0.85-0.95-2.17-1.64-3.76-1.91c-0.74-0.16-1.43-0.21-2.06-0.21
					c-0.69,0-1.32,0.05-1.96,0.21c-2.06,0.53-4.29,2.28-4.29,4.92c0,4.02,5.08,5.77,7.25,6.51l0.79,0.26
					c3.28,1.11,6.67,2.22,9.26,4.71L483.47,383.46z"/>
				<path d="M494.74,393.68v-23.39c0-1.59-0.26-2.54-0.79-3.07c-0.32-0.32-0.74-0.48-1.32-0.48h-0.9v-1.8h11.85v1.8h-0.9
					c-0.53,0-0.95,0.16-1.27,0.42c-0.53,0.53-0.79,1.53-0.79,3.07v23.39c0,1.53,0.26,2.54,0.79,3.07c0.32,0.32,0.74,0.48,1.32,0.48
					h0.9v1.8h-11.85v-1.8h0.79c0.63,0,1.06-0.16,1.38-0.48C494.47,396.22,494.74,395.21,494.74,393.68z"/>
				<path d="M519.34,366.74c-0.63,0-1.06,0.16-1.32,0.53c-0.42,0.58-0.37,1.64,0.16,3.07l8.73,21.38l7.41-21.17
					c0.42-1.59,0.42-2.65,0-3.23c-0.32-0.37-0.85-0.58-1.69-0.58h-1.11v-1.8h9.74v1.8h-1.11c-1.43,0-2.28,0.95-3.18,3.49l-10,28.73
					h-3.17l-0.21-0.48l-11.54-28.31c-1.11-2.43-2.01-3.44-3.18-3.44h-0.79v-1.8h12.22v1.8h-1.01H519.34z"/>
				<path d="M547.33,396.74c0.53-0.53,0.79-1.53,0.79-3.07v-23.39c0-1.59-0.26-2.54-0.79-3.07c-0.32-0.32-0.74-0.48-1.32-0.48h-0.9
					v-1.8h23.65v6.77h-1.8l-0.21-0.48c-1.16-2.91-3.39-4.13-7.41-4.13H554v12.28h3.97c3.28,0,4.87-0.63,5.66-2.33l0.32-0.64h1.8V385
					h-1.8l-0.32-0.69c-0.85-1.96-2.38-2.7-5.72-2.7h-3.97v15.08h6.35c2.75,0,4.55-0.58,5.82-1.91c0.26-0.26,0.79-1.01,1.64-2.91
					l0.16-0.32h1.8v7.41h-24.66v-1.8h0.9c0.58,0,1.01-0.16,1.32-0.48L547.33,396.74z"/>
			</g>
			<g>
				<path class="st0" d="M181.7,435c-1.29,0-2.52-0.2-3.7-0.59c-1.18-0.4-2.1-0.91-2.78-1.54l0.89-1.89
					c0.65,0.56,1.47,1.03,2.47,1.4c1,0.37,2.04,0.56,3.12,0.56c0.98,0,1.78-0.11,2.39-0.34c0.61-0.23,1.06-0.54,1.35-0.93
					c0.29-0.39,0.44-0.84,0.44-1.34c0-0.58-0.19-1.05-0.57-1.4c-0.38-0.35-0.87-0.64-1.47-0.86c-0.6-0.22-1.27-0.41-1.99-0.57
					c-0.73-0.16-1.46-0.35-2.19-0.57c-0.73-0.22-1.4-0.5-2.01-0.83c-0.61-0.34-1.09-0.79-1.46-1.37c-0.37-0.57-0.56-1.31-0.56-2.21
					c0-0.87,0.23-1.67,0.69-2.41c0.46-0.73,1.17-1.32,2.13-1.77c0.96-0.44,2.18-0.67,3.66-0.67c0.98,0,1.96,0.13,2.93,0.39
					c0.97,0.26,1.81,0.63,2.52,1.11l-0.8,1.94c-0.73-0.48-1.49-0.84-2.3-1.05c-0.81-0.22-1.59-0.33-2.35-0.33
					c-0.95,0-1.73,0.12-2.35,0.36c-0.61,0.24-1.06,0.56-1.34,0.97c-0.28,0.4-0.42,0.85-0.42,1.35c0,0.6,0.19,1.07,0.57,1.43
					c0.38,0.35,0.87,0.64,1.47,0.85c0.6,0.21,1.27,0.4,1.99,0.57c0.73,0.17,1.46,0.36,2.19,0.57c0.73,0.21,1.4,0.48,2.01,0.82
					c0.61,0.34,1.09,0.79,1.46,1.35c0.37,0.57,0.56,1.29,0.56,2.18c0,0.85-0.23,1.65-0.7,2.38c-0.47,0.74-1.19,1.32-2.16,1.77
					C184.41,434.78,183.18,435,181.7,435z"/>
				<path class="st0" d="M200.25,434.81v-16.93h6.6c1.48,0,2.75,0.23,3.8,0.7c1.05,0.47,1.85,1.15,2.42,2.03
					c0.56,0.89,0.85,1.94,0.85,3.17s-0.28,2.28-0.85,3.16c-0.57,0.88-1.37,1.56-2.42,2.03c-1.05,0.48-2.31,0.71-3.8,0.71h-5.27
					l1.09-1.14v6.26H200.25z M202.67,428.78l-1.09-1.21h5.2c1.55,0,2.72-0.33,3.52-0.99c0.8-0.66,1.2-1.6,1.2-2.81
					s-0.4-2.15-1.2-2.81c-0.8-0.66-1.97-0.99-3.52-0.99h-5.2l1.09-1.21V428.78z"/>
				<path class="st0" d="M228.36,432.7h9.87v2.1h-12.29v-16.93h11.95v2.11h-9.53V432.7z M228.14,425.18h8.71v2.06h-8.71V425.18z"/>
				<path class="st0" d="M253.03,432.7h9.87v2.1h-12.29v-16.93h11.95v2.11h-9.53V432.7z M252.81,425.18h8.71v2.06h-8.71V425.18z"/>
				<path class="st0" d="M282.83,435c-1.29,0-2.48-0.21-3.57-0.64c-1.09-0.43-2.03-1.03-2.83-1.81c-0.8-0.78-1.42-1.7-1.88-2.74
					c-0.45-1.05-0.68-2.2-0.68-3.46c0-1.26,0.23-2.41,0.68-3.46c0.45-1.05,1.08-1.96,1.89-2.75c0.81-0.78,1.75-1.39,2.84-1.81
					c1.09-0.43,2.28-0.64,3.57-0.64c1.31,0,2.51,0.22,3.62,0.67c1.1,0.44,2.04,1.1,2.82,1.97l-1.57,1.52
					c-0.65-0.68-1.37-1.18-2.18-1.51c-0.81-0.33-1.67-0.5-2.59-0.5c-0.95,0-1.83,0.16-2.65,0.48c-0.81,0.32-1.52,0.77-2.12,1.35
					c-0.6,0.58-1.06,1.27-1.39,2.07c-0.33,0.8-0.49,1.67-0.49,2.6c0,0.93,0.16,1.8,0.49,2.6c0.33,0.8,0.79,1.49,1.39,2.07
					c0.6,0.58,1.3,1.03,2.12,1.35c0.81,0.32,1.7,0.48,2.65,0.48c0.92,0,1.78-0.17,2.59-0.5c0.81-0.33,1.53-0.84,2.18-1.53l1.57,1.52
					c-0.77,0.87-1.71,1.53-2.82,1.98C285.37,434.77,284.15,435,282.83,435z"/>
				<path class="st0" d="M303.63,434.81h-2.42v-16.93h2.42V434.81z M313.58,427.26h-10.18v-2.1h10.18V427.26z M313.36,417.87h2.42
					v16.93h-2.42V417.87z"/>
				<path class="st0" d="M347.66,434.81v-14.83h-5.81v-2.11h14.01v2.11h-5.81v14.83H347.66z"/>
				<path class="st0" d="M369.38,434.81h-2.42v-16.93h2.42V434.81z M379.32,427.26h-10.18v-2.1h10.18V427.26z M379.1,417.87h2.42
					v16.93h-2.42V417.87z"/>
				<path class="st0" d="M397.49,432.7h9.87v2.1h-12.29v-16.93h11.95v2.11h-9.53V432.7z M397.27,425.18h8.71v2.06h-8.71V425.18z"/>
				<path class="st0" d="M419.74,434.81v-16.93h6.6c1.48,0,2.75,0.23,3.8,0.7c1.05,0.47,1.85,1.15,2.42,2.03
					c0.56,0.89,0.85,1.94,0.85,3.17s-0.28,2.28-0.85,3.16c-0.57,0.88-1.37,1.55-2.42,2.02c-1.05,0.47-2.31,0.7-3.8,0.7h-5.27
					l1.09-1.11v6.26H419.74z M422.16,428.78l-1.09-1.18h5.2c1.55,0,2.72-0.34,3.52-1c0.8-0.67,1.2-1.61,1.2-2.82s-0.4-2.15-1.2-2.81
					c-0.8-0.66-1.97-0.99-3.52-0.99h-5.2l1.09-1.21V428.78z M431.06,434.81l-4.31-6.14h2.59l4.35,6.14H431.06z"/>
				<path class="st0" d="M443.23,434.81l7.67-16.93h2.39l7.69,16.93h-2.54l-6.85-15.58h0.97l-6.85,15.58H443.23z M446.49,430.57
					l0.65-1.94h9.53l0.7,1.94H446.49z"/>
				<path class="st0" d="M471.96,434.81v-16.93h6.6c1.48,0,2.75,0.23,3.8,0.7c1.05,0.47,1.85,1.15,2.42,2.03
					c0.56,0.89,0.85,1.94,0.85,3.17s-0.28,2.28-0.85,3.16c-0.57,0.88-1.37,1.56-2.42,2.03c-1.05,0.48-2.31,0.71-3.8,0.71h-5.27
					l1.09-1.14v6.26H471.96z M474.38,428.78l-1.09-1.21h5.2c1.55,0,2.72-0.33,3.52-0.99c0.8-0.66,1.2-1.6,1.2-2.81
					s-0.4-2.15-1.2-2.81c-0.8-0.66-1.97-0.99-3.52-0.99h-5.2l1.09-1.21V428.78z"/>
				<path class="st0" d="M501.74,434.81v-6.48l0.56,1.5l-7.28-11.95h2.59l6.12,10.09h-1.4l6.14-10.09h2.39l-7.26,11.95l0.53-1.5
					v6.48H501.74z"/>
			</g>
		</g>
	</g>
	<g>
		<linearGradient id="SVGID_1_" gradientUnits="userSpaceOnUse" x1="594.6591" y1="400.0249" x2="638.0659" y2="400.0249">
			<stop  offset="0" style="stop-color:#314691"/>
			<stop  offset="1" style="stop-color:#69D6F3"/>
		</linearGradient>
		<path class="st2" d="M638.06,355.28l-0.77-0.73c-1.07-1.02-7.33-4.02-8.23-3.95c-0.13,0.01-1.47,0.46-2.98,1.01
			c-1.51,0.54-3.97,1.79-5.44,2.78c-2.51,1.67-2.79,1.78-4.12,1.59c-1.22-0.17-1.57-0.07-2.41,0.63c-0.7,0.59-0.99,1.12-0.99,1.82
			c0,0.95-0.72,1.89-4.91,6.42c-0.42,0.46-1.49,1.7-2.38,2.75c-1.94,2.32-2.05,2.4-3.12,2.4c-1.44,0.01-2.56,1.15-2.56,2.63
			c0,0.7,0.17,1.54,0.37,1.86c0.29,0.47,0.09,1.35-0.99,4.45c-0.75,2.13-1.5,4.34-1.67,4.91c-0.21,0.71-0.58,1.12-1.12,1.25
			c-0.98,0.25-2.09,1.59-2.09,2.52c0,0.38,0.31,1.19,0.68,1.8c0.6,0.98,0.65,1.41,0.46,3.51c-0.12,1.32-0.42,3.58-0.66,5.04
			c-0.37,2.23-0.36,3.12,0.01,5.57c1.7,11.12,1.68,10.91,0.98,11.49c-0.72,0.59-0.95,2.4-0.44,3.45c0.3,0.63,0.83,1.02,1.72,1.27
			c1.34,0.38,1.42,0.48,3.4,4.27c0.85,1.63,0.95,2.1,0.78,3.54c-0.18,1.5-0.11,1.75,0.64,2.51c0.52,0.52,1.2,0.84,1.79,0.84
			c1.03,0,1.21,0.16,5.11,4.68c1.66,1.92,2.3,2.94,2.55,4.04c0.39,1.77,1.34,2.41,3.17,2.14c1.06-0.16,1.5,0.01,3.27,1.2
			c1.12,0.76,2.86,1.89,3.86,2.51c1.31,0.82,1.86,1.38,1.99,2.02c0.11,0.54,0.58,1.14,1.2,1.52c1.18,0.72,2.18,0.5,3.53-0.79
			c0.45-0.42,2.12-1.3,3.73-1.96c4.57-1.86,4.99-2.08,5.34-2.73c0.22-0.41,0.32-15.45,0.32-44.45L638.06,355.28z M625.49,370.23
			c0.95,1.18,2.02,2.53,2.37,3c0.35,0.46,2.22,2.77,4.15,5.13c1.94,2.36,3.44,4.41,3.34,4.57c-0.1,0.16-1.75,0.38-3.67,0.49
			c-1.92,0.11-4.66,0.29-6.08,0.4c-2.57,0.2-2.6,0.19-3.52-0.78c-0.91-0.96-0.92-1.01-0.59-3.03c0.19-1.13,0.43-3.07,0.54-4.32
			c0.26-2.91,0.83-7.06,1.02-7.37C623.37,367.8,623.82,368.15,625.49,370.23z M614.31,387.63c-1.13,0.63-2.77,1.63-3.65,2.22
			c-1.48,1-1.78,1.07-4.07,1.04c-2.13-0.03-2.69-0.17-4.05-1c-0.87-0.53-1.85-1.07-2.2-1.2c-1.23-0.46,0.05-0.87,3.72-1.19
			c2.03-0.17,4.65-0.48,5.81-0.67c1.99-0.33,5.18-0.81,6.07-0.9c0.22-0.02,0.4,0.09,0.4,0.25
			C616.37,386.35,615.44,387,614.31,387.63z M618.71,387.56c0.52,0.28,0.57,1.09,0.57,10.5c0,5.87-0.12,10.2-0.29,10.2
			c-0.16,0-1.37-1.46-2.67-3.25c-1.31-1.79-3.06-4.16-3.9-5.26c-3.41-4.53-3.27-4.25-3.02-6.05c0.13-0.9,0.34-1.64,0.49-1.64
			c0.15,0,1.63-0.88,3.29-1.95C617.07,387.58,617.98,387.16,618.71,387.56z M605.5,398.47c-0.01,2.23-0.11,2.71-0.65,3.12
			c-0.35,0.27-0.9,0.49-1.23,0.49c-1.13,0.02-5.42-1.39-5.3-1.74c0.17-0.51,6.48-4.75,6.87-4.61
			C605.37,395.79,605.51,396.99,605.5,398.47z M605.96,406.76c0.47-0.1,1.14-0.3,1.49-0.46c0.36-0.16,0.69-0.29,0.75-0.3
			c0.06-0.01,0.86,0.4,1.78,0.91c0.93,0.51,2.89,1.55,4.37,2.3c1.48,0.76,2.63,1.54,2.57,1.74c-0.07,0.2-1.57,0.74-3.34,1.2
			c-1.77,0.46-4.01,1.07-5,1.36c-5.08,1.48-7.72,2.19-8.07,2.19c-0.61,0-0.38-0.49,2.21-4.79
			C604.61,407.78,605.3,406.9,605.96,406.76z M615.47,408.14c-0.66-0.42-2.41-1.38-3.88-2.14c-2.12-1.09-2.67-1.52-2.67-2.09
			c0-0.39-0.43-1.21-0.96-1.83c-0.86-1.01-0.96-1.35-0.97-3.41c-0.02-3.28,0.33-3.5,1.89-1.19c2.61,3.87,7.86,10.77,8.2,10.77
			c0.15,0,0.27,0.15,0.27,0.32C617.34,409.09,616.77,408.96,615.47,408.14z M618.77,414.18c0.23,0.07,0.38,2.63,0.43,7.59l0.09,7.48
			l-0.81,0.64c-0.88,0.69-2.03,0.61-5.52-0.4c-0.89-0.26-2.16-0.55-2.83-0.66c-1.82-0.29-3.49-1.08-3.49-1.65
			c0-0.28,1.36-1.92,3.03-3.64c1.67-1.72,4.32-4.56,5.89-6.3C617.14,415.49,618.58,414.12,618.77,414.18z M618.4,382.33
			c-0.25,0-1.43-0.69-2.62-1.53c-3.22-2.27-6.49-4.52-8.38-5.78c-0.92-0.61-1.78-1.26-1.89-1.45c-0.34-0.55,0.34-1.1,2.17-1.75
			c0.95-0.33,2.3-0.85,3.02-1.16c0.71-0.3,2.68-1.1,4.37-1.76c1.69-0.66,3.37-1.33,3.73-1.48c0.98-0.42,1.66-0.37,2.1,0.16
			c0.31,0.38,0.28,1.48-0.16,5.26c-0.3,2.63-0.63,5.59-0.72,6.57C619.85,381.22,619.23,382.33,618.4,382.33z M621.75,408.73
			l-0.85-0.55v-10.19c0-8.59,0.07-10.18,0.45-10.09c0.25,0.06,3.5,3.3,7.21,7.2c3.72,3.91,6.75,7.26,6.75,7.45
			c0,0.19-2.86,1.79-6.36,3.54C622.64,409.26,622.59,409.28,621.75,408.73z M622.85,413.33c0.27,0.11,1.04,0.39,1.73,0.64
			c1.29,0.46,6.37,2.41,7.51,2.87c0.36,0.14,1.31,0.5,2.11,0.8l1.46,0.53l0.09,2.43c0.11,2.9,0.12,2.88-3.82,4.8
			c-1.51,0.74-3.05,1.51-3.4,1.72c-1.51,0.86-5.67,2.83-5.98,2.83c-0.18,0-0.63-0.29-0.98-0.65c-0.61-0.61-0.65-1.08-0.65-7.9
			c0-7.15,0.01-7.26,0.73-7.76C622.03,413.37,622.58,413.23,622.85,413.33z M634.86,399.54c-0.18-0.33-2.95-3.35-6.17-6.71
			s-5.84-6.36-5.84-6.68c0-0.92,1.77-1.15,8.42-1.1l4.37,0.03l0.09,7.53C635.81,399.94,635.67,401.07,634.86,399.54z M635.48,380.39
			c-0.19,0-0.45-0.27-0.57-0.6c-0.25-0.64-4.75-6.42-7.32-9.4c-2.09-2.41-2.58-3.18-2.31-3.61c0.12-0.2,0.46-0.26,0.75-0.14
			c0.29,0.12,1.48,0.44,2.64,0.71s3.2,0.75,4.54,1.06l2.43,0.57l0.09,5.71C635.79,378.52,635.71,380.39,635.48,380.39z
			 M618.58,358.68c0.19-0.92,0.56-1.33,1.99-2.19c1.96-1.18,2.43-1.29,2.14-0.54c-0.11,0.28-0.29,1.74-0.41,3.24
			c-0.28,3.64-0.67,3.95-2.55,2.05C618.46,359.93,618.36,359.72,618.58,358.68z M611.77,363.52c2.35-2.51,2.38-2.53,3.95-2.49
			c1.41,0.03,1.72,0.18,2.92,1.42c1.97,2.03,1.76,2.59-1.46,3.93c-2.64,1.1-3.98,1.63-6.36,2.52c-0.74,0.28-2.23,0.92-3.32,1.43
			c-1.09,0.51-2.03,0.8-2.09,0.64C605.3,370.67,607.64,367.93,611.77,363.52z M600.82,380.22c0.33-0.89,0.83-2.29,1.11-3.11
			c0.48-1.36,1.3-2.14,2.31-2.21c0.19-0.01,1.07,0.49,1.94,1.1c2.28,1.61,2.4,1.69,4.19,2.95c0.89,0.63,2.35,1.63,3.24,2.24
			c2.75,1.86,3.62,2.71,3.14,3.03c-0.23,0.16-1.91,0.45-3.73,0.66c-1.81,0.21-4.76,0.6-6.54,0.87c-4.36,0.65-6.92,0.64-7.19-0.05
			C599.11,385.2,599.42,384.06,600.82,380.22z M598.44,390.25c0.33-0.25,0.64-0.45,0.7-0.46c0.07,0,1.12,0.59,2.35,1.32
			c2.02,1.2,2.24,1.44,2.24,2.35c-0.01,0.92-0.31,1.23-3.31,3.29c-1.82,1.25-3.48,2.31-3.68,2.37
			C596.09,399.28,597.73,390.79,598.44,390.25z M598.5,414.49c-0.16-0.16-0.43-1.44-0.6-2.86c-0.17-1.41-0.53-3.81-0.8-5.32
			c-0.67-3.71-0.65-4.21,0.16-4.21c0.36,0,1.86,0.39,3.32,0.87c1.46,0.48,2.77,1.02,2.9,1.21c0.45,0.64,0.24,2.28-0.4,3.1
			c-0.35,0.45-0.64,0.91-0.64,1.02c0,0.12-0.52,0.99-1.15,1.94c-0.63,0.95-1.45,2.36-1.82,3.13
			C599.07,414.2,598.67,414.66,598.5,414.49z M603.34,425.18c-0.73-0.84-3.17-5.69-3.17-6.29c0-1.11,1.16-1.82,4.37-2.68
			c1.78-0.48,4.04-1.08,5.02-1.35c0.98-0.27,2.41-0.63,3.18-0.79c0.77-0.17,1.79-0.51,2.27-0.76c0.93-0.49,1.78-0.63,2.07-0.35
			c0.18,0.19-2.03,2.62-8.15,8.95C605.11,425.86,604.33,426.32,603.34,425.18z M612.59,436.81c-0.86-0.59-6.21-6.81-6.02-6.99
			c0.12-0.12,0.52-0.14,0.88-0.05c0.36,0.1,1.97,0.48,3.57,0.85c1.6,0.37,3.36,0.81,3.91,0.98c0.55,0.17,1.23,0.3,1.53,0.3
			c0.55,0,1.2,0.92,1.2,1.71c0,0.25-0.55,1.04-1.21,1.77C615.26,436.66,613.39,437.36,612.59,436.81z M623.15,444.5
			c-0.43-0.38-1.98-1.47-3.43-2.41c-2.43-1.58-2.66-1.82-2.86-3.03c-0.23-1.37-0.12-1.64,1.45-3.35c0.87-0.96,1.67-1.14,2.18-0.49
			c0.17,0.22,0.86,1.86,1.51,3.64c0.66,1.78,1.48,3.81,1.83,4.51C624.6,444.9,624.24,445.47,623.15,444.5z M634.97,443.23
			c-0.19,0.19-1.64,0.86-3.21,1.48c-2.5,0.98-2.93,1.07-3.38,0.66c-0.28-0.25-0.91-0.56-1.39-0.68c-1.25-0.31-1.23-0.28-3.36-5.99
			c-0.5-1.33-1.02-2.57-1.17-2.74c-0.37-0.42-0.33-1.8,0.04-1.8c0.17,0,0.4,0.16,0.52,0.35c0.2,0.33,3.86,2.76,8.52,5.66
			C634.54,442.04,635.39,442.8,634.97,443.23z M635.56,440.92c-0.13-0.06-1.7-1.06-3.48-2.23c-1.78-1.17-4.51-2.92-6.07-3.89
			c-4.14-2.59-4.17-2.53,3.23-6.25c3.34-1.68,6.18-2.99,6.32-2.91c0.13,0.08,0.24,3.57,0.24,7.76S635.69,440.98,635.56,440.92z
			 M635.47,416.19c-0.18,0.11-1.61-0.3-3.16-0.92c-1.56-0.62-4.23-1.66-5.96-2.32c-1.72-0.65-3.21-1.39-3.31-1.64
			c-0.13-0.33,1.56-1.31,6.05-3.51c3.42-1.68,6.33-2.98,6.47-2.9c0.13,0.08,0.24,2.6,0.24,5.61
			C635.8,413.93,635.68,416.06,635.47,416.19z M635.8,361.44c0,3.1-0.13,5.71-0.29,5.81c-0.16,0.1-1-0.03-1.86-0.28
			c-2.22-0.65-6.08-1.48-6.86-1.48c-0.4,0-1.16-0.64-1.95-1.62c-1.43-1.79-1.39-1.25-0.57-7.1l0.38-2.72l1.93-0.75
			c2.3-0.9,3.17-0.83,6.04,0.51C635.96,355.34,635.8,354.97,635.8,361.44z"/>
		<g>
			
				<linearGradient id="SVGID_2_" gradientUnits="userSpaceOnUse" x1="643.0994" y1="379.9139" x2="658.0621" y2="379.9139" gradientTransform="matrix(1 3.662541e-03 -3.662541e-03 1 0.7812 -6.9254)">
				<stop  offset="0" style="stop-color:#314691"/>
				<stop  offset="1" style="stop-color:#69D6F3"/>
			</linearGradient>
			<path class="st3" d="M655.59,367.2c0.2,0.34,0.8,4.75,1.06,7.85c0.11,1.33,0.37,3.4,0.56,4.6c0.35,2.15,0.34,2.2-0.64,3.22
				c-0.99,1.03-1.01,1.04-3.75,0.82c-1.52-0.12-4.43-0.32-6.47-0.45c-2.04-0.12-3.8-0.36-3.9-0.53c-0.11-0.17,1.5-2.36,3.57-4.85
				c2.07-2.5,4.06-4.95,4.44-5.44c0.37-0.49,1.51-1.92,2.53-3.18C654.79,367.02,655.26,366.65,655.59,367.2z"/>
			
				<linearGradient id="SVGID_3_" gradientUnits="userSpaceOnUse" x1="663.3003" y1="393.113" x2="680.8207" y2="393.113" gradientTransform="matrix(1 3.662541e-03 -3.662541e-03 1 0.7812 -6.9254)">
				<stop  offset="0" style="stop-color:#314691"/>
				<stop  offset="1" style="stop-color:#69D6F3"/>
			</linearGradient>
			<path class="st4" d="M662.65,386.24c0-0.17,0.19-0.29,0.43-0.27c0.95,0.1,4.34,0.62,6.46,0.98c1.23,0.21,4.01,0.54,6.18,0.74
				c3.91,0.35,5.27,0.79,3.96,1.28c-0.37,0.14-1.42,0.7-2.34,1.26c-1.45,0.88-2.04,1.02-4.31,1.05c-2.44,0.03-2.75-0.05-4.32-1.12
				c-0.93-0.63-2.68-1.7-3.87-2.38C663.63,387.11,662.65,386.42,662.65,386.24z"/>
			
				<linearGradient id="SVGID_4_" gradientUnits="userSpaceOnUse" x1="660.1981" y1="403.1374" x2="670.8326" y2="403.1374" gradientTransform="matrix(1 3.662541e-03 -3.662541e-03 1 0.7812 -6.9254)">
				<stop  offset="0" style="stop-color:#314691"/>
				<stop  offset="1" style="stop-color:#69D6F3"/>
			</linearGradient>
			<path class="st5" d="M666.03,390.41c1.77,1.15,3.34,2.09,3.49,2.09c0.15,0,0.38,0.78,0.51,1.74c0.26,1.91,0.4,1.62-3.24,6.42
				c-0.89,1.18-2.76,3.69-4.17,5.59c-1.4,1.9-2.68,3.45-2.86,3.45c-0.18,0-0.29-4.6-0.27-10.85c0.04-10.01,0.09-10.87,0.65-11.17
				C660.92,387.28,661.89,387.72,666.03,390.41z"/>
			
				<linearGradient id="SVGID_5_" gradientUnits="userSpaceOnUse" x1="674.8612" y1="404.2707" x2="682.5024" y2="404.2707" gradientTransform="matrix(1 3.662541e-03 -3.662541e-03 1 0.7812 -6.9254)">
				<stop  offset="0" style="stop-color:#314691"/>
				<stop  offset="1" style="stop-color:#69D6F3"/>
			</linearGradient>
			<path class="st6" d="M674.5,396.44c0.41-0.14,7.11,4.4,7.29,4.94c0.12,0.38-4.45,1.86-5.65,1.83c-0.35-0.01-0.94-0.24-1.31-0.53
				c-0.57-0.44-0.68-0.94-0.68-3.32C674.16,397.78,674.31,396.5,674.5,396.44z"/>
			
				<linearGradient id="SVGID_6_" gradientUnits="userSpaceOnUse" x1="662.7047" y1="416.9828" x2="680.4606" y2="416.9828" gradientTransform="matrix(1 3.662541e-03 -3.662541e-03 1 0.7812 -6.9254)">
				<stop  offset="0" style="stop-color:#314691"/>
				<stop  offset="1" style="stop-color:#69D6F3"/>
			</linearGradient>
			<path class="st7" d="M677.06,412.6c2.73,4.58,2.97,5.1,2.33,5.1c-0.38,0-3.18-0.77-8.58-2.37c-1.04-0.31-3.43-0.97-5.31-1.46
				c-1.88-0.5-3.47-1.07-3.55-1.29c-0.07-0.21,1.16-1.04,2.74-1.84c1.58-0.8,3.67-1.9,4.66-2.43c0.98-0.54,1.84-0.97,1.9-0.96
				c0.06,0.01,0.41,0.16,0.79,0.32c0.38,0.16,1.09,0.39,1.59,0.49C674.34,408.33,675.07,409.26,677.06,412.6z"/>
			
				<linearGradient id="SVGID_7_" gradientUnits="userSpaceOnUse" x1="662.2662" y1="408.0008" x2="673.2835" y2="408.0008" gradientTransform="matrix(1 3.662541e-03 -3.662541e-03 1 0.7812 -6.9254)">
				<stop  offset="0" style="stop-color:#314691"/>
				<stop  offset="1" style="stop-color:#69D6F3"/>
			</linearGradient>
			<path class="st8" d="M661.52,410.06c0-0.19,0.13-0.34,0.29-0.34c0.37,0,5.98-7.32,8.77-11.43c1.66-2.45,2.03-2.22,2,1.27
				c-0.02,2.2-0.13,2.56-1.05,3.63c-0.56,0.66-1.03,1.53-1.03,1.95c0,0.6-0.59,1.06-2.85,2.21c-1.57,0.8-3.43,1.81-4.14,2.26
				C662.13,410.46,661.52,410.6,661.52,410.06z"/>
			
				<linearGradient id="SVGID_8_" gradientUnits="userSpaceOnUse" x1="660.1843" y1="429.1178" x2="673.6412" y2="429.1178" gradientTransform="matrix(1 3.662541e-03 -3.662541e-03 1 0.7812 -6.9254)">
				<stop  offset="0" style="stop-color:#314691"/>
				<stop  offset="1" style="stop-color:#69D6F3"/>
			</linearGradient>
			<path class="st9" d="M663.37,419.28c1.66,1.86,4.47,4.88,6.24,6.72c1.77,1.84,3.21,3.59,3.21,3.89c0,0.61-1.79,1.44-3.72,1.74
				c-0.7,0.11-2.06,0.42-3.01,0.69c-3.71,1.06-4.94,1.14-5.88,0.41l-0.86-0.68l0.12-7.96c0.08-5.28,0.25-8,0.49-8.08
				C660.18,415.95,661.71,417.42,663.37,419.28z"/>
			
				<linearGradient id="SVGID_9_" gradientUnits="userSpaceOnUse" x1="658.2596" y1="378.5582" x2="674.9456" y2="378.5582" gradientTransform="matrix(1 3.662541e-03 -3.662541e-03 1 0.7812 -6.9254)">
				<stop  offset="0" style="stop-color:#314691"/>
				<stop  offset="1" style="stop-color:#69D6F3"/>
			</linearGradient>
			<path class="st10" d="M658.78,379.02c-0.1-1.04-0.43-4.19-0.74-6.99c-0.45-4.03-0.48-5.2-0.14-5.6c0.47-0.56,1.19-0.61,2.23-0.16
				c0.38,0.16,2.16,0.88,3.96,1.59c1.8,0.71,3.89,1.57,4.65,1.89c0.76,0.33,2.2,0.89,3.2,1.25c1.95,0.69,2.67,1.28,2.31,1.87
				c-0.12,0.2-1.03,0.89-2.02,1.54c-2.02,1.33-5.5,3.71-8.94,6.11c-1.27,0.89-2.53,1.62-2.8,1.62
				C659.61,382.13,658.96,380.94,658.78,379.02z"/>
			
				<linearGradient id="SVGID_10_" gradientUnits="userSpaceOnUse" x1="643.1356" y1="403.7845" x2="658.4745" y2="403.7845" gradientTransform="matrix(1 3.662541e-03 -3.662541e-03 1 0.7812 -6.9254)">
				<stop  offset="0" style="stop-color:#314691"/>
				<stop  offset="1" style="stop-color:#69D6F3"/>
			</linearGradient>
			<path class="st11" d="M649.17,407.37c-3.72-1.88-6.76-3.59-6.76-3.8c0-0.2,3.25-3.76,7.22-7.9c3.97-4.14,7.43-7.58,7.7-7.63
				c0.41-0.1,0.48,1.6,0.44,10.73l-0.04,10.84l-0.9,0.59C655.93,410.79,655.88,410.77,649.17,407.37z"/>
			
				<linearGradient id="SVGID_11_" gradientUnits="userSpaceOnUse" x1="642.6591" y1="428.4453" x2="658.4745" y2="428.4453" gradientTransform="matrix(1 3.662541e-03 -3.662541e-03 1 0.7812 -6.9254)">
				<stop  offset="0" style="stop-color:#314691"/>
				<stop  offset="1" style="stop-color:#69D6F3"/>
			</linearGradient>
			<path class="st12" d="M656.94,415.44c0.76,0.54,0.77,0.65,0.75,8.26c-0.03,7.26-0.07,7.76-0.72,8.4
				c-0.38,0.38-0.85,0.69-1.05,0.69c-0.33,0-4.75-2.12-6.35-3.04c-0.38-0.22-2.01-1.04-3.61-1.84c-4.18-2.06-4.17-2.05-4.05-5.13
				l0.11-2.58l1.55-0.56c0.85-0.31,1.86-0.69,2.24-0.84c1.21-0.49,6.63-2.54,8-3.02c0.73-0.26,1.55-0.56,1.84-0.68
				C655.93,414.98,656.51,415.14,656.94,415.44z"/>
			
				<linearGradient id="SVGID_12_" gradientUnits="userSpaceOnUse" x1="642.6752" y1="397.5536" x2="656.4064" y2="397.5536" gradientTransform="matrix(1 3.662541e-03 -3.662541e-03 1 0.7812 -6.9254)">
				<stop  offset="0" style="stop-color:#314691"/>
				<stop  offset="1" style="stop-color:#69D6F3"/>
			</linearGradient>
			<path class="st13" d="M642.02,393.01l0.12-8.01l4.65-0.02c7.08-0.02,8.96,0.23,8.96,1.21c0,0.34-2.81,3.53-6.24,7.08
				s-6.39,6.76-6.59,7.11C642.05,402,641.9,400.79,642.02,393.01z"/>
			
				<linearGradient id="SVGID_13_" gradientUnits="userSpaceOnUse" x1="642.6771" y1="377.219" x2="653.886" y2="377.219" gradientTransform="matrix(1 3.662541e-03 -3.662541e-03 1 0.7812 -6.9254)">
				<stop  offset="0" style="stop-color:#314691"/>
				<stop  offset="1" style="stop-color:#69D6F3"/>
			</linearGradient>
			<path class="st14" d="M642.09,373.92l0.12-6.07l2.59-0.6c1.42-0.33,3.59-0.83,4.83-1.11c1.24-0.28,2.5-0.61,2.81-0.74
				s0.68-0.06,0.8,0.15c0.28,0.46-0.24,1.27-2.47,3.83c-2.75,3.16-7.55,9.29-7.82,9.97c-0.14,0.35-0.41,0.64-0.61,0.64
				C642.09,380,642.01,378.01,642.09,373.92z"/>
			
				<linearGradient id="SVGID_14_" gradientUnits="userSpaceOnUse" x1="656.4583" y1="361.7461" x2="661.0383" y2="361.7461" gradientTransform="matrix(1 3.662541e-03 -3.662541e-03 1 0.7812 -6.9254)">
				<stop  offset="0" style="stop-color:#314691"/>
				<stop  offset="1" style="stop-color:#69D6F3"/>
			</linearGradient>
			<path class="st15" d="M659.13,359.69c-2.01,2.01-2.42,1.68-2.7-2.2c-0.12-1.6-0.31-3.15-0.42-3.45c-0.3-0.8,0.2-0.67,2.28,0.58
				c1.52,0.92,1.91,1.35,2.11,2.33C660.62,358.07,660.52,358.3,659.13,359.69z"/>
			
				<linearGradient id="SVGID_15_" gradientUnits="userSpaceOnUse" x1="659.5378" y1="369.2784" x2="674.9654" y2="369.2784" gradientTransform="matrix(1 3.662541e-03 -3.662541e-03 1 0.7812 -6.9254)">
				<stop  offset="0" style="stop-color:#314691"/>
				<stop  offset="1" style="stop-color:#69D6F3"/>
			</linearGradient>
			<path class="st16" d="M674.37,370.09c-0.06,0.17-1.06-0.14-2.22-0.69c-1.16-0.55-2.75-1.24-3.53-1.54
				c-2.53-0.95-3.96-1.52-6.76-2.71c-3.42-1.44-3.64-2.04-1.54-4.19c1.28-1.32,1.62-1.47,3.11-1.5c1.66-0.03,1.7-0.01,4.19,2.67
				C672,366.85,674.48,369.77,674.37,370.09z"/>
			
				<linearGradient id="SVGID_16_" gradientUnits="userSpaceOnUse" x1="662.7561" y1="384.7566" x2="681.5128" y2="384.7566" gradientTransform="matrix(1 3.662541e-03 -3.662541e-03 1 0.7812 -6.9254)">
				<stop  offset="0" style="stop-color:#314691"/>
				<stop  offset="1" style="stop-color:#69D6F3"/>
			</linearGradient>
			<path class="st17" d="M680.81,385.78c-0.28,0.73-3.01,0.74-7.65,0.03c-1.89-0.29-5.03-0.72-6.96-0.95
				c-1.93-0.23-3.71-0.55-3.96-0.72c-0.51-0.34,0.42-1.24,3.35-3.21c0.95-0.64,2.51-1.7,3.46-2.37c1.91-1.33,2.04-1.42,4.47-3.12
				c0.94-0.65,1.87-1.18,2.07-1.17c1.08,0.07,1.94,0.91,2.45,2.36c0.3,0.87,0.83,2.37,1.17,3.32
				C680.68,384.05,681.01,385.26,680.81,385.78z"/>
			
				<linearGradient id="SVGID_17_" gradientUnits="userSpaceOnUse" x1="676.7502" y1="399.5357" x2="684.3476" y2="399.5357" gradientTransform="matrix(1 3.662541e-03 -3.662541e-03 1 0.7812 -6.9254)">
				<stop  offset="0" style="stop-color:#314691"/>
				<stop  offset="1" style="stop-color:#69D6F3"/>
			</linearGradient>
			<path class="st18" d="M683.49,400.07c-0.22-0.06-1.97-1.2-3.91-2.53c-3.19-2.2-3.51-2.53-3.51-3.51c0-0.97,0.24-1.22,2.39-2.49
				c1.31-0.77,2.43-1.4,2.5-1.4c0.06,0.01,0.4,0.23,0.74,0.49C682.46,391.21,684.17,400.25,683.49,400.07z"/>
			
				<linearGradient id="SVGID_18_" gradientUnits="userSpaceOnUse" x1="676.7556" y1="414.2756" x2="684.304" y2="414.2756" gradientTransform="matrix(1 3.662541e-03 -3.662541e-03 1 0.7812 -6.9254)">
				<stop  offset="0" style="stop-color:#314691"/>
				<stop  offset="1" style="stop-color:#69D6F3"/>
			</linearGradient>
			<path class="st19" d="M680.52,415.24c-0.4-0.82-1.26-2.32-1.93-3.34c-0.66-1.01-1.21-1.95-1.21-2.07c0-0.12-0.31-0.61-0.68-1.09
				c-0.67-0.87-0.89-2.61-0.41-3.3c0.14-0.2,1.53-0.78,3.09-1.28c1.56-0.5,3.15-0.92,3.54-0.91c0.87,0,0.88,0.54,0.16,4.48
				c-0.3,1.61-0.69,4.16-0.87,5.66s-0.48,2.87-0.65,3.04C681.36,416.6,680.94,416.12,680.52,415.24z"/>
			
				<linearGradient id="SVGID_19_" gradientUnits="userSpaceOnUse" x1="662.5239" y1="425.9376" x2="680.5352" y2="425.9376" gradientTransform="matrix(1 3.662541e-03 -3.662541e-03 1 0.7812 -6.9254)">
				<stop  offset="0" style="stop-color:#314691"/>
				<stop  offset="1" style="stop-color:#69D6F3"/>
			</linearGradient>
			<path class="st20" d="M670.42,424.28c-6.49-6.75-8.84-9.35-8.64-9.55c0.31-0.31,1.21-0.15,2.2,0.38c0.5,0.27,1.59,0.64,2.41,0.82
				c0.82,0.18,2.34,0.56,3.39,0.85c1.04,0.29,3.44,0.94,5.34,1.45c3.42,0.93,4.65,1.68,4.64,2.87c0,0.64-2.62,5.8-3.4,6.68
				C675.29,428.98,674.47,428.5,670.42,424.28z"/>
			
				<linearGradient id="SVGID_20_" gradientUnits="userSpaceOnUse" x1="661.9215" y1="440.9229" x2="673.7258" y2="440.9229" gradientTransform="matrix(1 3.662541e-03 -3.662541e-03 1 0.7812 -6.9254)">
				<stop  offset="0" style="stop-color:#314691"/>
				<stop  offset="1" style="stop-color:#69D6F3"/>
			</linearGradient>
			<path class="st21" d="M662.37,438.57c-0.71-0.77-1.29-1.62-1.29-1.88c0-0.84,0.7-1.81,1.29-1.81c0.31,0,1.04-0.14,1.63-0.32
				c0.58-0.18,2.46-0.64,4.16-1.02c1.71-0.39,3.42-0.78,3.8-0.89c0.39-0.1,0.81-0.08,0.93,0.05c0.2,0.2-5.52,6.8-6.44,7.42
				C665.61,440.69,663.62,439.94,662.37,438.57z"/>
			
				<linearGradient id="SVGID_21_" gradientUnits="userSpaceOnUse" x1="654.9194" y1="447.8983" x2="662.8745" y2="447.8983" gradientTransform="matrix(1 3.662541e-03 -3.662541e-03 1 0.7812 -6.9254)">
				<stop  offset="0" style="stop-color:#314691"/>
				<stop  offset="1" style="stop-color:#69D6F3"/>
			</linearGradient>
			<path class="st22" d="M654.47,447.06c0.38-0.74,1.26-2.9,1.97-4.79c0.7-1.89,1.43-3.63,1.62-3.87c0.54-0.68,1.39-0.49,2.32,0.53
				c1.66,1.83,1.78,2.12,1.53,3.57c-0.22,1.29-0.46,1.54-3.06,3.21c-1.55,0.99-3.19,2.14-3.66,2.55
				C654.03,449.29,653.66,448.67,654.47,447.06z"/>
			
				<linearGradient id="SVGID_22_" gradientUnits="userSpaceOnUse" x1="643.4005" y1="447.869" x2="657.0878" y2="447.869" gradientTransform="matrix(1 3.662541e-03 -3.662541e-03 1 0.7812 -6.9254)">
				<stop  offset="0" style="stop-color:#314691"/>
				<stop  offset="1" style="stop-color:#69D6F3"/>
			</linearGradient>
			<path class="st23" d="M646.29,443.62c4.97-3.07,8.87-5.63,9.08-5.99c0.13-0.21,0.38-0.37,0.56-0.37c0.4,0,0.43,1.46,0.03,1.91
				c-0.16,0.18-0.72,1.49-1.26,2.91c-2.29,6.07-2.27,6.03-3.59,6.36c-0.51,0.13-1.18,0.45-1.48,0.72c-0.48,0.43-0.93,0.33-3.59-0.72
				c-1.67-0.66-3.21-1.38-3.41-1.59C642.18,446.4,643.09,445.59,646.29,443.62z"/>
			
				<linearGradient id="SVGID_23_" gradientUnits="userSpaceOnUse" x1="642.6185" y1="440.8414" x2="656.0167" y2="440.8414" gradientTransform="matrix(1 3.662541e-03 -3.662541e-03 1 0.7812 -6.9254)">
				<stop  offset="0" style="stop-color:#314691"/>
				<stop  offset="1" style="stop-color:#69D6F3"/>
			</linearGradient>
			<path class="st24" d="M641.78,436.4c0.02-4.46,0.15-8.18,0.29-8.26c0.14-0.09,3.16,1.32,6.71,3.12c7.87,3.99,7.83,3.93,3.42,6.66
				c-1.66,1.03-4.57,2.88-6.47,4.11c-1.9,1.23-3.57,2.3-3.71,2.36C641.87,444.46,641.76,440.86,641.78,436.4z"/>
			
				<linearGradient id="SVGID_24_" gradientUnits="userSpaceOnUse" x1="642.6185" y1="416.667" x2="656.1996" y2="416.667" gradientTransform="matrix(1 3.662541e-03 -3.662541e-03 1 0.7812 -6.9254)">
				<stop  offset="0" style="stop-color:#314691"/>
				<stop  offset="1" style="stop-color:#69D6F3"/>
			</linearGradient>
			<path class="st25" d="M641.87,412.05c0.01-3.2,0.14-5.89,0.28-5.97c0.14-0.09,3.23,1.31,6.87,3.11c4.77,2.35,6.56,3.4,6.42,3.75
				c-0.1,0.27-1.69,1.05-3.53,1.73c-1.84,0.69-4.69,1.79-6.35,2.44c-1.65,0.66-3.17,1.09-3.36,0.97
				C641.98,417.95,641.86,415.68,641.87,412.05z"/>
			
				<linearGradient id="SVGID_25_" gradientUnits="userSpaceOnUse" x1="642.6173" y1="362.8603" x2="655.4884" y2="362.8603" gradientTransform="matrix(1 3.662541e-03 -3.662541e-03 1 0.7812 -6.9254)">
				<stop  offset="0" style="stop-color:#314691"/>
				<stop  offset="1" style="stop-color:#69D6F3"/>
			</linearGradient>
			<path class="st26" d="M645.47,351.71c3.07-1.41,3.99-1.48,6.43-0.52l2.05,0.81l0.39,2.9c0.84,6.22,0.89,5.65-0.64,7.55
				c-0.84,1.05-1.65,1.72-2.08,1.72c-0.83,0-4.94,0.87-7.3,1.55c-0.92,0.26-1.81,0.39-1.98,0.29c-0.17-0.11-0.3-2.89-0.29-6.18
				C642.09,352.95,641.92,353.35,645.47,351.71z"/>
		</g>
	</g>
</g>
</svg>
