<svg xml:space="preserve" style="max-height: 500px" viewBox="0 204.8 800 400" y="0px" x="0px" xmlns:xlink="http://www.w3.org/1999/xlink" xmlns="http://www.w3.org/2000/svg" id="Layer_1" version="1.1" width="800" height="400">
<style type="text/css">
	.st0{fill:#314691;}
	.st1{fill:#FFFFFF;}
	.st2{fill:url(#SVGID_1_);}
	.st3{fill:url(#SVGID_2_);}
	.st4{fill:url(#SVGID_3_);}
	.st5{fill:url(#SVGID_4_);}
	.st6{fill:url(#SVGID_5_);}
	.st7{fill:url(#SVGID_6_);}
	.st8{fill:url(#SVGID_7_);}
	.st9{fill:url(#SVGID_8_);}
	.st10{fill:url(#SVGID_9_);}
	.st11{fill:url(#SVGID_10_);}
	.st12{fill:url(#SVGID_11_);}
	.st13{fill:url(#SVGID_12_);}
	.st14{fill:url(#SVGID_13_);}
	.st15{fill:url(#SVGID_14_);}
	.st16{fill:url(#SVGID_15_);}
	.st17{fill:url(#SVGID_16_);}
	.st18{fill:url(#SVGID_17_);}
	.st19{fill:url(#SVGID_18_);}
	.st20{fill:url(#SVGID_19_);}
	.st21{fill:url(#SVGID_20_);}
	.st22{fill:url(#SVGID_21_);}
	.st23{fill:url(#SVGID_22_);}
	.st24{fill:url(#SVGID_23_);}
	.st25{fill:url(#SVGID_24_);}
	.st26{fill:url(#SVGID_25_);}
	.st27{fill:url(#SVGID_26_);}
	.st28{fill:url(#SVGID_27_);}
	.st29{fill:url(#SVGID_28_);}
	.st30{fill:url(#SVGID_29_);}
	.st31{fill:url(#SVGID_30_);}
	.st32{fill:url(#SVGID_31_);}
	.st33{fill:url(#SVGID_32_);}
	.st34{fill:url(#SVGID_33_);}
	.st35{fill:url(#SVGID_34_);}
	.st36{fill:url(#SVGID_35_);}
	.st37{fill:url(#SVGID_36_);}
	.st38{fill:url(#SVGID_37_);}
	.st39{fill:url(#SVGID_38_);}
	.st40{fill:url(#SVGID_39_);}
	.st41{fill:url(#SVGID_40_);}
	.st42{fill:url(#SVGID_41_);}
	.st43{fill:url(#SVGID_42_);}
	.st44{fill:url(#SVGID_43_);}
	.st45{fill:url(#SVGID_44_);}
	.st46{fill:url(#SVGID_45_);}
	.st47{fill:url(#SVGID_46_);}
	.st48{fill:url(#SVGID_47_);}
	.st49{fill:url(#SVGID_48_);}
	.st50{fill:url(#SVGID_49_);}
	.st51{fill:url(#SVGID_50_);}
	.st52{fill:url(#SVGID_51_);}
	.st53{fill:url(#SVGID_52_);}
	.st54{fill:url(#SVGID_53_);}
	.st55{fill:url(#SVGID_54_);}
	.st56{fill:url(#SVGID_55_);}
	.st57{fill:url(#SVGID_56_);}
	.st58{fill:url(#SVGID_57_);}
	.st59{fill:url(#SVGID_58_);}
	.st60{fill:url(#SVGID_59_);}
	.st61{fill:url(#SVGID_60_);}
	.st62{fill:url(#SVGID_61_);}
	.st63{fill:url(#SVGID_62_);}
	.st64{fill:url(#SVGID_63_);}
	.st65{fill:url(#SVGID_64_);}
	.st66{fill:url(#SVGID_65_);}
	.st67{fill:url(#SVGID_66_);}
	.st68{fill:url(#SVGID_67_);}
	.st69{fill:url(#SVGID_68_);}
	.st70{fill:url(#SVGID_69_);}
	.st71{fill:url(#SVGID_70_);}
	.st72{fill:url(#SVGID_71_);}
	.st73{fill:url(#SVGID_72_);}
	.st74{fill:url(#SVGID_73_);}
	.st75{fill:url(#SVGID_74_);}
	.st76{fill:url(#SVGID_75_);}
</style>
<rect height="800" width="800" class="st0"/>
<g>
	<g>
		<path d="M187.3,481.61c-0.34-0.34-0.78-0.5-1.4-0.5h-0.95v-1.9h8.89v1.9h-0.95c-0.62,0-1.06,0.17-1.4,0.45&#xA;&#9;&#9;&#9;c-0.39,0.34-0.78,1.45-0.84,3.19v30.3h-2.8l-2.24-3.19l-19.4-26.44v24.04c0,1.62,0.28,2.63,0.84,3.19c0.34,0.34,0.78,0.5,1.4,0.5&#xA;&#9;&#9;&#9;h0.95v1.9h-8.83v-1.9h0.78c0.06,0,0.06,0,0.06,0c0.67,0,1.12-0.17,1.45-0.5c0.56-0.56,0.84-1.62,0.84-3.24v-24.71&#xA;&#9;&#9;&#9;c0-1.68-0.28-2.68-0.84-3.24c-0.34-0.34-0.78-0.5-1.4-0.5h-0.95v-1.9h8.55l0.22,0.34l18.78,25.77v-20.52&#xA;&#9;&#9;&#9;c0-1.62-0.28-2.63-0.84-3.19L187.3,481.61z" class="st1"/>
		<path d="M200.82,512.69c0.56-0.56,0.84-1.62,0.84-3.24v-24.71c0-1.68-0.28-2.68-0.84-3.24&#xA;&#9;&#9;&#9;c-0.34-0.34-0.78-0.5-1.4-0.5h-0.95v-1.9h24.99v7.16h-1.9l-0.22-0.5c-1.23-3.08-3.58-4.36-7.83-4.36h-5.65v12.97h4.19&#xA;&#9;&#9;&#9;c3.47,0,5.14-0.67,5.98-2.46l0.34-0.67h1.9v9.06h-1.9l-0.34-0.73c-0.89-2.07-2.52-2.85-6.04-2.85h-4.19v15.93h6.71&#xA;&#9;&#9;&#9;c2.91,0,4.81-0.62,6.15-2.01c0.28-0.28,0.84-1.06,1.73-3.07l0.17-0.34h1.9v7.83h-26.05v-1.9h0.95c0.61,0,1.06-0.17,1.4-0.5&#xA;&#9;&#9;&#9;L200.82,512.69z" class="st1"/>
		<path d="M239.45,482.5c-0.11,0.28-0.17,0.61-0.22,1.01c-0.06,0.45-0.11,0.95-0.11,1.45c0,1.4,0,13.92,0,15.32&#xA;&#9;&#9;&#9;c0,1.57,0.06,2.91,0.22,4.19c0.22,1.96,0.67,3.52,1.29,4.59c0.61,1.06,1.51,1.96,2.68,2.68c1.12,0.67,2.52,1.01,4.19,1.01&#xA;&#9;&#9;&#9;c1.79,0,4.25-0.28,6.09-1.45c1.68-1.12,2.85-2.57,3.47-4.3c0.61-1.62,0.61-4.81,0.61-8.5V485.3c0-1.85-0.28-3.02-0.95-3.63&#xA;&#9;&#9;&#9;c-0.39-0.39-0.95-0.56-1.73-0.56h-0.11h-0.95v-1.9h10.12v1.9h-0.62c-0.39,0-0.67,0-0.73,0c-0.56,0.06-0.95,0.22-1.29,0.56&#xA;&#9;&#9;&#9;c-0.61,0.61-0.9,1.79-0.9,3.69v12.92c0,3.97-0.05,6.99-0.73,9.17c-0.67,2.18-2.01,4.08-3.97,5.65c-1.9,1.51-4.98,2.41-8.5,2.41&#xA;&#9;&#9;&#9;c-1.62,0-3.41-0.22-5.03-0.62c-2.96-0.73-5.42-2.4-6.93-4.7c-0.73-1.12-1.23-2.4-1.57-3.8c-0.61-2.57-0.67-5.37-0.73-7.83v-0.06&#xA;&#9;&#9;&#9;c-0.06-1.73-0.06-5.7-0.06-8.72v-5.03c0-2.91-0.78-3.58-1.96-3.69h-1.17v-1.9h12.52v1.9c0,0-1.01,0-1.06,0&#xA;&#9;&#9;&#9;c-0.34,0-0.67,0.06-0.95,0.17c-0.17,0.06-0.34,0.17-0.45,0.34c-0.17,0.17-0.28,0.39-0.39,0.67L239.45,482.5z" class="st1"/>
		<path d="M270.25,512.92c0.56-0.5,0.84-1.57,0.84-3.19v-24.71c0-1.62-0.28-2.68-0.84-3.24&#xA;&#9;&#9;&#9;c-0.34-0.34-0.78-0.5-1.34-0.5h-0.95v-1.9h15.88c4.03,0,7.16,0.84,9.39,2.46c2.24,1.62,3.41,4.08,3.41,7.1&#xA;&#9;&#9;&#9;c0,2.74-1.01,5.09-2.96,6.82c-1.79,1.56-4.25,2.57-7.32,3.02c1.34,0.78,2.52,1.85,3.63,3.19c0.28,0.34,0.56,0.67,0.78,1.01&#xA;&#9;&#9;&#9;l0.67,0.95l0.95,1.29c1.06,1.51,2.18,3.08,3.47,4.53l0.11,0.11c0.95,1.12,2.57,2.91,4.47,3.24l0.67,0.11v1.9h-0.61&#xA;&#9;&#9;&#9;c0,0-2.46,0-3.47,0h-0.78c-2.52,0-4.42-0.78-5.98-2.41c-1.4-1.45-2.4-3.47-3.52-5.76l-0.06-0.11c-0.61-1.17-1.06-2.12-1.62-3.13&#xA;&#9;&#9;&#9;c-0.78-1.4-1.73-2.57-2.85-3.52c-0.45-0.39-0.95-0.73-1.45-1.06c-0.06,0-0.11,0-0.17-0.05l-0.17-0.11&#xA;&#9;&#9;&#9;c-0.06-0.06-0.17-0.11-0.28-0.17h-3.08v10.62c0,1.68,0.28,2.68,0.84,3.24c0.34,0.34,0.78,0.5,1.4,0.5h0.95v1.9h-12.52v-1.9h0.78&#xA;&#9;&#9;&#9;c0.06,0,0.11,0,0.17,0c0.67,0,1.12-0.17,1.45-0.5L270.25,512.92z M277.3,481.72v15.04h5.2c4.75,0,7.6-2.91,7.6-7.77&#xA;&#9;&#9;&#9;c0-4.75-2.18-7.27-6.26-7.27H277.3z" class="st1"/>
		<path d="M303.35,496.81c0-5.54,2.01-10.12,5.98-13.64c3.41-3.02,7.55-4.58,12.3-4.58c4.75,0,8.89,1.73,12.36,5.2&#xA;&#9;&#9;&#9;c3.47,3.47,5.2,7.83,5.2,12.97c0,5.31-1.79,9.78-5.26,13.31c-3.47,3.52-7.77,5.31-12.75,5.31c-5.03,0-9.28-1.73-12.69-5.14&#xA;&#9;&#9;&#9;c-3.41-3.41-5.14-7.88-5.14-13.31V496.81z M313.58,484.24c-2.35,2.8-3.52,6.99-3.52,12.41c0,5.59,1.23,9.95,3.69,12.92&#xA;&#9;&#9;&#9;c1.85,2.24,4.36,3.36,7.44,3.36c3.24,0,5.98-1.23,8.11-3.69s3.19-6.43,3.19-11.8c0-5.81-1.23-10.23-3.63-13.14&#xA;&#9;&#9;&#9;c-1.85-2.24-4.47-3.36-7.77-3.36c-3.13,0-5.65,1.12-7.49,3.36V484.24z" class="st1"/>
		<path d="M364.84,509.45v-24.71c0-1.68-0.28-2.68-0.84-3.24c-0.34-0.34-0.78-0.5-1.4-0.5h-0.95v-1.9h12.52v1.9h-0.95&#xA;&#9;&#9;&#9;c-0.56,0-1.01,0.17-1.34,0.45c-0.56,0.56-0.84,1.62-0.84,3.24v24.71c0,1.62,0.28,2.68,0.84,3.24c0.34,0.34,0.78,0.5,1.4,0.5h0.95&#xA;&#9;&#9;&#9;v1.9h-12.52v-1.9h0.84c0.67,0,1.12-0.17,1.45-0.5C364.56,512.13,364.84,511.07,364.84,509.45z" class="st1"/>
		<path d="M405.7,481.61c-0.34-0.34-0.78-0.5-1.4-0.5h-0.95v-1.9h8.89v1.9h-0.95c-0.61,0-1.06,0.17-1.4,0.45&#xA;&#9;&#9;&#9;c-0.39,0.34-0.78,1.45-0.84,3.19v30.3h-2.8l-2.24-3.19l-19.4-26.44v24.04c0,1.62,0.28,2.63,0.84,3.19c0.34,0.34,0.78,0.5,1.4,0.5&#xA;&#9;&#9;&#9;h0.95v1.9h-8.83v-1.9h0.78c0.06,0,0.06,0,0.06,0c0.67,0,1.12-0.17,1.45-0.5c0.56-0.56,0.84-1.62,0.84-3.24v-24.71&#xA;&#9;&#9;&#9;c0-1.68-0.28-2.68-0.84-3.24c-0.34-0.34-0.78-0.5-1.4-0.5h-0.95v-1.9h8.55l0.22,0.34l18.78,25.77v-20.52&#xA;&#9;&#9;&#9;c0-1.62-0.28-2.63-0.84-3.19L405.7,481.61z" class="st1"/>
		<path d="M435.22,478.81c0.67,0,1.4,0.06,2.12,0.11c1.51,0.11,2.96,0.34,4.36,0.67c0.78,0.17,1.56,0.39,2.35,0.61&#xA;&#9;&#9;&#9;l0.22,0.06c0.11,0,0.22,0.06,0.34,0.11c0.17,0.06,0.39,0.11,0.61,0.17c0.28,0.06,0.5,0.11,0.67,0.11c0.39,0,0.56-0.34,0.56-0.34&#xA;&#9;&#9;&#9;h1.79v9.62h-1.9l-0.17-0.56c-0.11-0.28-0.22-0.56-0.34-0.84l-0.06-0.11c-1.01-2.18-2.29-4.58-4.19-5.7&#xA;&#9;&#9;&#9;c-1.79-1.01-3.86-1.56-5.81-1.56c-3.35,0-6.15,1.12-8.27,3.3c-2.68,2.74-4.14,7.16-4.02,12.13c0.05,3.19,0.73,6.49,1.79,8.83&#xA;&#9;&#9;&#9;c1.23,2.63,2.85,4.58,4.81,5.81c0.67,0.39,1.4,0.73,2.12,1.01c1.45,0.56,3.13,0.84,4.86,0.84c1.29,0,2.52-0.17,3.69-0.5&#xA;&#9;&#9;&#9;c0.9-0.22,1.79-0.67,2.8-1.34c0.78-0.56,1.56-1.34,2.29-2.29c0.39-0.5,0.78-1.06,1.12-1.68l0.67-1.29l1.68,0.45l-0.17,0.73&#xA;&#9;&#9;&#9;l-1.51,6.09l-0.39,0.11c-1.12,0.39-2.24,0.78-2.85,0.95c-1.96,0.5-4.03,1.01-6.09,1.12c-0.39,0-0.78,0-1.29,0&#xA;&#9;&#9;&#9;c-3.08,0-7.55-0.45-11.29-2.46c-1.84-1.01-3.52-2.46-4.92-4.19c-2.52-3.19-3.91-7.77-3.75-12.3c0.22-6.43,3.63-12.24,9.17-15.54&#xA;&#9;&#9;&#9;c3.13-1.85,6.76-2.24,9.28-2.24L435.22,478.81z" class="st1"/>
		<path d="M470.38,512.64c4.19,0,6.32-1.23,7.6-4.36l0.45-1.06h1.62v7.83h-13.98h-11.91v-1.9h0.84&#xA;&#9;&#9;&#9;c0.67,0,1.12-0.17,1.45-0.5c0.56-0.5,0.84-1.57,0.84-3.19v-24.71c0-1.68-0.28-2.68-0.84-3.24c-0.34-0.34-0.78-0.5-1.4-0.5h-0.95&#xA;&#9;&#9;&#9;v-1.9h12.52v1.9h-0.95c-0.56,0-1.01,0.17-1.34,0.45c-0.56,0.56-0.84,1.62-0.84,3.24v27.95h6.82H470.38z" class="st1"/>
		<path d="M494.64,482.5c-0.11,0.28-0.17,0.61-0.22,1.01c-0.06,0.45-0.11,0.95-0.11,1.45c0,1.4,0,13.92,0,15.32&#xA;&#9;&#9;&#9;c0,1.57,0.06,2.91,0.22,4.19c0.22,1.96,0.67,3.52,1.29,4.59c0.61,1.06,1.51,1.96,2.68,2.68c1.12,0.67,2.52,1.01,4.19,1.01&#xA;&#9;&#9;&#9;c1.79,0,4.25-0.28,6.09-1.45c1.68-1.12,2.85-2.57,3.47-4.3c0.61-1.62,0.61-4.81,0.61-8.5V485.3c0-1.85-0.28-3.02-0.95-3.63&#xA;&#9;&#9;&#9;c-0.39-0.39-0.95-0.56-1.73-0.56h-0.11h-0.95v-1.9h10.12v1.9h-0.62c-0.39,0-0.67,0-0.73,0c-0.56,0.06-0.95,0.22-1.29,0.56&#xA;&#9;&#9;&#9;c-0.61,0.61-0.9,1.79-0.9,3.69v12.92c0,3.97-0.05,6.99-0.73,9.17c-0.67,2.18-2.01,4.08-3.97,5.65c-1.9,1.51-4.98,2.41-8.5,2.41&#xA;&#9;&#9;&#9;c-1.62,0-3.41-0.22-5.03-0.62c-2.96-0.73-5.42-2.4-6.93-4.7c-0.73-1.12-1.23-2.4-1.57-3.8c-0.61-2.57-0.67-5.37-0.73-7.83v-0.06&#xA;&#9;&#9;&#9;c-0.06-1.73-0.06-5.7-0.06-8.72v-5.03c0-2.91-0.78-3.58-1.96-3.69h-1.17v-1.9h12.52v1.9c0,0-1.01,0-1.06,0&#xA;&#9;&#9;&#9;c-0.34,0-0.67,0.06-0.95,0.17c-0.17,0.06-0.34,0.17-0.45,0.34c-0.17,0.17-0.28,0.39-0.39,0.67L494.64,482.5z" class="st1"/>
		<path d="M548.36,498.66c1.73,1.68,2.68,3.8,2.68,6.15c0,1.29-0.28,2.52-0.84,3.8c-1.23,2.8-3.97,4.47-5.48,5.2&#xA;&#9;&#9;&#9;c-2.18,1.06-4.69,1.62-7.32,1.62c-1.57,0-3.13-0.22-4.64-0.62c-2.91-0.78-5.42-1.9-5.59-1.96c-0.62-0.22-1.01,0.34-1.01,0.34&#xA;&#9;&#9;&#9;h-1.62v-10.23h1.79l0.17,0.56c1.34,4.53,3.41,7.32,6.26,8.61c1.01,0.45,2.12,0.73,3.19,0.84c0.39,0.05,0.78,0.05,1.17,0.05&#xA;&#9;&#9;&#9;c2.68,0,6.04-0.95,7.49-3.58c1.68-3.02,0-5.98-2.41-7.55c-1.34-0.9-2.91-1.45-4.25-1.9l-1.56-0.56&#xA;&#9;&#9;&#9;c-3.69-1.29-7.83-2.74-10.23-5.81c-2.29-2.96-2.07-7.66,0.5-10.73c0.84-0.95,1.9-1.85,3.02-2.46c2.01-1.17,4.47-1.79,7.32-1.79&#xA;&#9;&#9;&#9;h0.06c2.24,0,4.64,0.39,6.88,1.06c0.45,0.17,1.62,0.56,1.62,0.56c0.61,0.22,1.01-0.34,1.01-0.34h0.45h1.17v2.4v6.99h-1.79&#xA;&#9;&#9;&#9;l-0.17-0.5c-0.45-1.34-1.9-4.19-3.13-5.59c-0.9-1.01-2.29-1.73-3.97-2.01c-0.78-0.17-1.51-0.22-2.18-0.22&#xA;&#9;&#9;&#9;c-0.73,0-1.4,0.06-2.07,0.22c-2.18,0.56-4.53,2.41-4.53,5.2c0,4.25,5.37,6.09,7.66,6.88l0.84,0.28c3.47,1.17,7.04,2.35,9.78,4.98&#xA;&#9;&#9;&#9;L548.36,498.66z" class="st1"/>
		<path d="M560.27,509.45v-24.71c0-1.68-0.28-2.68-0.84-3.24c-0.34-0.34-0.78-0.5-1.4-0.5h-0.95v-1.9h12.52v1.9h-0.95&#xA;&#9;&#9;&#9;c-0.56,0-1.01,0.17-1.34,0.45c-0.56,0.56-0.84,1.62-0.84,3.24v24.71c0,1.62,0.28,2.68,0.84,3.24c0.34,0.34,0.78,0.5,1.4,0.5h0.95&#xA;&#9;&#9;&#9;v1.9h-12.52v-1.9h0.84c0.67,0,1.12-0.17,1.45-0.5C559.99,512.13,560.27,511.07,560.27,509.45z" class="st1"/>
		<path d="M586.26,480.99c-0.67,0-1.12,0.17-1.4,0.56c-0.45,0.62-0.39,1.73,0.17,3.24l9.23,22.59l7.83-22.36&#xA;&#9;&#9;&#9;c0.45-1.68,0.45-2.8,0-3.41c-0.34-0.39-0.9-0.61-1.79-0.61h-1.17v-1.9h10.29v1.9h-1.17c-1.51,0-2.41,1.01-3.36,3.69l-10.57,30.36&#xA;&#9;&#9;&#9;h-3.35l-0.22-0.5l-12.19-29.91c-1.17-2.57-2.13-3.63-3.36-3.63h-0.84v-1.9h12.92v1.9h-1.06H586.26z" class="st1"/>
		<path d="M615.84,512.69c0.56-0.56,0.84-1.62,0.84-3.24v-24.71c0-1.68-0.28-2.68-0.84-3.24&#xA;&#9;&#9;&#9;c-0.34-0.34-0.78-0.5-1.4-0.5h-0.95v-1.9h24.99v7.16h-1.9l-0.22-0.5c-1.23-3.08-3.58-4.36-7.83-4.36h-5.65v12.97h4.19&#xA;&#9;&#9;&#9;c3.47,0,5.14-0.67,5.98-2.46l0.34-0.67h1.9v9.06h-1.9l-0.34-0.73c-0.89-2.07-2.52-2.85-6.04-2.85h-4.19v15.93h6.71&#xA;&#9;&#9;&#9;c2.91,0,4.81-0.62,6.15-2.01c0.28-0.28,0.84-1.06,1.73-3.07l0.17-0.34h1.9v7.83h-26.05v-1.9h0.95c0.61,0,1.06-0.17,1.4-0.5&#xA;&#9;&#9;&#9;L615.84,512.69z" class="st1"/>
	</g>
	<g>
		<path d="M229.55,553.11c-1.36,0-2.67-0.21-3.91-0.63c-1.24-0.42-2.22-0.96-2.94-1.62l0.95-1.99&#xA;&#9;&#9;&#9;c0.68,0.6,1.55,1.09,2.61,1.48c1.05,0.39,2.16,0.59,3.3,0.59c1.04,0,1.88-0.12,2.53-0.36s1.12-0.57,1.43-0.98&#xA;&#9;&#9;&#9;c0.31-0.42,0.46-0.89,0.46-1.42c0-0.61-0.2-1.11-0.6-1.48c-0.4-0.37-0.92-0.68-1.56-0.91c-0.64-0.23-1.34-0.43-2.11-0.6&#xA;&#9;&#9;&#9;c-0.77-0.17-1.54-0.37-2.31-0.6c-0.77-0.23-1.48-0.52-2.12-0.88c-0.64-0.36-1.16-0.84-1.55-1.44c-0.39-0.61-0.59-1.38-0.59-2.34&#xA;&#9;&#9;&#9;c0-0.92,0.24-1.77,0.73-2.54c0.49-0.78,1.24-1.4,2.25-1.87c1.01-0.47,2.3-0.7,3.87-0.7c1.04,0,2.07,0.14,3.09,0.41&#xA;&#9;&#9;&#9;c1.02,0.27,1.91,0.66,2.66,1.18l-0.84,2.04c-0.77-0.51-1.58-0.88-2.43-1.11c-0.85-0.23-1.68-0.34-2.48-0.34&#xA;&#9;&#9;&#9;c-1.01,0-1.83,0.13-2.48,0.38c-0.65,0.25-1.12,0.6-1.42,1.02c-0.3,0.43-0.45,0.9-0.45,1.43c0,0.63,0.2,1.13,0.6,1.51&#xA;&#9;&#9;&#9;c0.4,0.37,0.92,0.67,1.56,0.89c0.64,0.22,1.34,0.42,2.11,0.6c0.77,0.18,1.54,0.38,2.31,0.6c0.77,0.22,1.48,0.51,2.12,0.87&#xA;&#9;&#9;&#9;c0.64,0.36,1.15,0.83,1.55,1.43c0.39,0.6,0.59,1.36,0.59,2.3c0,0.9-0.25,1.74-0.74,2.52c-0.49,0.78-1.26,1.4-2.29,1.87&#xA;&#9;&#9;&#9;C232.41,552.87,231.11,553.11,229.55,553.11z" class="st1"/>
		<path d="M249.15,552.9v-17.89h6.98c1.57,0,2.9,0.25,4.01,0.74c1.11,0.49,1.96,1.21,2.56,2.15&#xA;&#9;&#9;&#9;c0.6,0.94,0.89,2.05,0.89,3.35s-0.3,2.41-0.89,3.33c-0.6,0.93-1.45,1.64-2.56,2.15c-1.11,0.5-2.44,0.75-4.01,0.75h-5.57l1.15-1.2&#xA;&#9;&#9;&#9;v6.62H249.15z M251.7,546.54l-1.15-1.28h5.5c1.64,0,2.87-0.35,3.72-1.05c0.84-0.7,1.26-1.69,1.26-2.96s-0.42-2.27-1.26-2.97&#xA;&#9;&#9;&#9;c-0.84-0.7-2.08-1.05-3.72-1.05h-5.5l1.15-1.28V546.54z" class="st1"/>
		<path d="M278.84,550.68h10.43v2.22h-12.98v-17.89h12.62v2.22h-10.07V550.68z M278.61,542.73h9.2v2.17h-9.2V542.73z" class="st1"/>
		<path d="M304.91,550.68h10.43v2.22h-12.98v-17.89h12.62v2.22h-10.07V550.68z M304.68,542.73h9.2v2.17h-9.2V542.73z" class="st1"/>
		<path d="M336.39,553.11c-1.36,0-2.62-0.23-3.77-0.68c-1.15-0.45-2.15-1.09-2.99-1.92c-0.84-0.83-1.5-1.79-1.98-2.9&#xA;&#9;&#9;&#9;c-0.48-1.11-0.72-2.33-0.72-3.65c0-1.33,0.24-2.55,0.72-3.65c0.48-1.11,1.14-2.07,1.99-2.9c0.85-0.83,1.85-1.46,3-1.92&#xA;&#9;&#9;&#9;c1.15-0.45,2.41-0.68,3.77-0.68c1.38,0,2.65,0.23,3.82,0.7c1.17,0.47,2.16,1.16,2.98,2.08l-1.66,1.61&#xA;&#9;&#9;&#9;c-0.68-0.72-1.45-1.25-2.3-1.6c-0.85-0.35-1.76-0.52-2.74-0.52c-1,0-1.94,0.17-2.8,0.51c-0.86,0.34-1.61,0.82-2.24,1.43&#xA;&#9;&#9;&#9;c-0.63,0.61-1.12,1.34-1.47,2.19c-0.35,0.84-0.52,1.76-0.52,2.75c0,0.99,0.17,1.9,0.52,2.75c0.35,0.84,0.84,1.57,1.47,2.19&#xA;&#9;&#9;&#9;c0.63,0.61,1.37,1.09,2.24,1.43c0.86,0.34,1.79,0.51,2.8,0.51c0.97,0,1.88-0.17,2.74-0.52c0.85-0.35,1.62-0.89,2.3-1.62l1.66,1.61&#xA;&#9;&#9;&#9;c-0.82,0.92-1.81,1.62-2.98,2.09C339.07,552.87,337.79,553.11,336.39,553.11z" class="st1"/>
		<path d="M358.37,552.9h-2.55v-17.89h2.55V552.9z M368.88,544.93h-10.76v-2.22h10.76V544.93z M368.64,535.01h2.55&#xA;&#9;&#9;&#9;v17.89h-2.55V535.01z" class="st1"/>
		<path d="M404.88,552.9v-15.66h-6.13v-2.22h14.8v2.22h-6.13v15.66H404.88z" class="st1"/>
		<path d="M427.83,552.9h-2.56v-17.89h2.56V552.9z M438.33,544.93h-10.76v-2.22h10.76V544.93z M438.1,535.01h2.55v17.89&#xA;&#9;&#9;&#9;h-2.55V535.01z" class="st1"/>
		<path d="M457.53,550.68h10.43v2.22h-12.98v-17.89h12.62v2.22h-10.07V550.68z M457.29,542.73h9.2v2.17h-9.2V542.73z" class="st1"/>
		<path d="M481.04,552.9v-17.89h6.98c1.57,0,2.9,0.25,4.01,0.74c1.11,0.49,1.96,1.21,2.56,2.15&#xA;&#9;&#9;&#9;c0.6,0.94,0.89,2.05,0.89,3.35s-0.3,2.41-0.89,3.33c-0.6,0.93-1.45,1.64-2.56,2.13c-1.11,0.49-2.44,0.74-4.01,0.74h-5.57&#xA;&#9;&#9;&#9;l1.15-1.17v6.62H481.04z M483.59,546.54l-1.15-1.25h5.5c1.64,0,2.87-0.35,3.72-1.06s1.26-1.7,1.26-2.98s-0.42-2.27-1.26-2.97&#xA;&#9;&#9;&#9;c-0.84-0.7-2.08-1.05-3.72-1.05h-5.5l1.15-1.28V546.54z M493,552.9l-4.55-6.49h2.73l4.6,6.49H493z" class="st1"/>
		<path d="M505.85,552.9l8.1-17.89h2.53l8.13,17.89h-2.68l-7.23-16.46h1.02l-7.23,16.46H505.85z M509.3,548.43&#xA;&#9;&#9;&#9;l0.69-2.04h10.07l0.74,2.04H509.3z" class="st1"/>
		<path d="M536.21,552.9v-17.89h6.98c1.57,0,2.9,0.25,4.01,0.74c1.11,0.49,1.96,1.21,2.56,2.15&#xA;&#9;&#9;&#9;c0.6,0.94,0.89,2.05,0.89,3.35s-0.3,2.41-0.89,3.33c-0.6,0.93-1.45,1.64-2.56,2.15c-1.11,0.5-2.44,0.75-4.01,0.75h-5.57l1.15-1.2&#xA;&#9;&#9;&#9;v6.62H536.21z M538.77,546.54l-1.15-1.28h5.5c1.64,0,2.87-0.35,3.72-1.05c0.84-0.7,1.27-1.69,1.27-2.96s-0.42-2.27-1.27-2.97&#xA;&#9;&#9;&#9;c-0.84-0.7-2.08-1.05-3.72-1.05h-5.5l1.15-1.28V546.54z" class="st1"/>
		<path d="M567.67,552.9v-6.85l0.59,1.58l-7.69-12.62h2.74l6.47,10.66h-1.48l6.49-10.66h2.53l-7.67,12.62l0.56-1.58&#xA;&#9;&#9;&#9;v6.85H567.67z" class="st1"/>
	</g>
	<g>
		<path d="M399.83,256.02l-1.48-1.4c-2.07-1.96-14.15-7.77-15.88-7.63c-0.24,0.02-2.84,0.89-5.76,1.94&#xA;&#9;&#9;&#9;c-2.92,1.04-7.65,3.46-10.5,5.36c-4.85,3.21-5.38,3.43-7.95,3.07c-2.35-0.32-3.03-0.14-4.65,1.23c-1.36,1.14-1.91,2.16-1.91,3.51&#xA;&#9;&#9;&#9;c0,1.83-1.39,3.65-9.47,12.4c-0.81,0.88-2.88,3.28-4.59,5.31c-3.75,4.47-3.95,4.63-6.02,4.64c-2.79,0.02-4.93,2.23-4.93,5.07&#xA;&#9;&#9;&#9;c0,1.35,0.32,2.97,0.71,3.59c0.56,0.91,0.18,2.61-1.92,8.59c-1.44,4.1-2.9,8.37-3.23,9.49c-0.41,1.37-1.11,2.16-2.16,2.41&#xA;&#9;&#9;&#9;c-1.88,0.48-4.03,3.07-4.03,4.87c0.01,0.73,0.59,2.29,1.31,3.47c1.15,1.88,1.26,2.72,0.88,6.77c-0.24,2.54-0.81,6.92-1.27,9.73&#xA;&#9;&#9;&#9;c-0.71,4.3-0.7,6.02,0.03,10.74c3.28,21.47,3.25,21.05,1.88,22.18c-1.38,1.14-1.83,4.63-0.86,6.66c0.58,1.22,1.59,1.97,3.31,2.45&#xA;&#9;&#9;&#9;c2.58,0.73,2.74,0.93,6.56,8.25c1.63,3.14,1.83,4.05,1.5,6.84c-0.34,2.89-0.22,3.38,1.24,4.84c1.01,1.01,2.31,1.61,3.46,1.61&#xA;&#9;&#9;&#9;c1.99,0,2.33,0.3,9.86,9.03c3.21,3.71,4.45,5.68,4.91,7.8c0.75,3.41,2.58,4.65,6.11,4.13c2.04-0.3,2.9,0.02,6.3,2.32&#xA;&#9;&#9;&#9;c2.17,1.47,5.51,3.65,7.44,4.85c2.53,1.58,3.6,2.66,3.85,3.91c0.21,1.04,1.13,2.2,2.32,2.93c2.28,1.39,4.21,0.96,6.81-1.52&#xA;&#9;&#9;&#9;c0.86-0.81,4.1-2.51,7.19-3.78c8.82-3.59,9.64-4.01,10.31-5.26c0.42-0.79,0.63-29.81,0.62-85.79L399.83,256.02z M375.56,284.88&#xA;&#9;&#9;&#9;c1.84,2.28,3.89,4.89,4.56,5.78c0.68,0.89,4.28,5.35,8.02,9.9c3.74,4.55,6.64,8.52,6.45,8.83c-0.19,0.31-3.37,0.73-7.08,0.94&#xA;&#9;&#9;&#9;c-3.7,0.21-8.99,0.56-11.74,0.77c-4.96,0.38-5.01,0.37-6.8-1.51c-1.76-1.86-1.78-1.95-1.13-5.84c0.36-2.18,0.84-5.93,1.05-8.33&#xA;&#9;&#9;&#9;c0.49-5.61,1.61-13.62,1.98-14.22C371.48,280.19,372.33,280.86,375.56,284.88z M353.99,318.47c-2.18,1.22-5.35,3.15-7.04,4.29&#xA;&#9;&#9;&#9;c-2.86,1.93-3.43,2.07-7.85,2c-4.11-0.06-5.18-0.33-7.81-1.93c-1.67-1.02-3.58-2.06-4.24-2.31c-2.38-0.89,0.09-1.68,7.18-2.29&#xA;&#9;&#9;&#9;c3.93-0.34,8.97-0.92,11.21-1.29c3.84-0.64,10-1.56,11.72-1.74c0.43-0.04,0.78,0.18,0.78,0.49&#xA;&#9;&#9;&#9;C357.95,316,356.17,317.25,353.99,318.47z M362.48,318.32c1.01,0.54,1.1,2.11,1.1,20.26c0,11.33-0.24,19.68-0.56,19.68&#xA;&#9;&#9;&#9;c-0.31,0-2.64-2.82-5.16-6.27c-2.53-3.45-5.91-8.02-7.52-10.16c-6.57-8.73-6.31-8.21-5.83-11.67c0.24-1.74,0.66-3.16,0.94-3.16&#xA;&#9;&#9;&#9;c0.28,0,3.14-1.69,6.35-3.77C359.32,318.37,361.07,317.56,362.48,318.32z M336.98,339.39c-0.02,4.31-0.21,5.23-1.25,6.02&#xA;&#9;&#9;&#9;c-0.68,0.51-1.74,0.94-2.38,0.95c-2.18,0.04-10.45-2.68-10.23-3.36c0.33-0.98,12.51-9.16,13.26-8.9&#xA;&#9;&#9;&#9;C336.73,334.2,336.99,336.53,336.98,339.39z M337.88,355.38c0.9-0.19,2.19-0.59,2.88-0.88c0.69-0.3,1.34-0.56,1.44-0.58&#xA;&#9;&#9;&#9;c0.11-0.02,1.66,0.76,3.44,1.75c1.79,0.98,5.58,2.98,8.44,4.45c2.85,1.46,5.08,2.97,4.95,3.35c-0.13,0.39-3.03,1.43-6.44,2.31&#xA;&#9;&#9;&#9;c-3.41,0.89-7.75,2.07-9.64,2.62c-9.81,2.85-14.89,4.23-15.58,4.23c-1.17,0-0.73-0.95,4.26-9.24&#xA;&#9;&#9;&#9;C335.26,357.35,336.59,355.66,337.88,355.38z M356.22,358.03c-1.28-0.81-4.65-2.66-7.49-4.12c-4.09-2.1-5.16-2.93-5.16-4.03&#xA;&#9;&#9;&#9;c0-0.76-0.83-2.34-1.85-3.54c-1.66-1.94-1.85-2.61-1.88-6.59c-0.04-6.33,0.64-6.75,3.64-2.29c5.03,7.48,15.16,20.79,15.83,20.79&#xA;&#9;&#9;&#9;c0.28,0,0.52,0.28,0.52,0.63C359.83,359.87,358.73,359.62,356.22,358.03z M362.6,369.7c0.44,0.14,0.73,5.08,0.84,14.66l0.17,14.43&#xA;&#9;&#9;&#9;l-1.56,1.23c-1.69,1.33-3.93,1.17-10.65-0.78c-1.72-0.49-4.18-1.07-5.45-1.28c-3.51-0.56-6.74-2.09-6.74-3.19&#xA;&#9;&#9;&#9;c0-0.54,2.63-3.7,5.85-7.03c3.22-3.33,8.33-8.8,11.37-12.16C359.45,372.23,362.23,369.58,362.6,369.7z M361.89,308.23&#xA;&#9;&#9;&#9;c-0.48,0-2.76-1.33-5.06-2.95c-6.22-4.38-12.52-8.73-16.18-11.15c-1.78-1.18-3.43-2.44-3.65-2.8c-0.66-1.07,0.66-2.13,4.2-3.37&#xA;&#9;&#9;&#9;c1.83-0.64,4.45-1.64,5.82-2.24c1.38-0.59,5.18-2.12,8.44-3.4c3.27-1.28,6.5-2.56,7.19-2.86c1.9-0.81,3.21-0.71,4.05,0.3&#xA;&#9;&#9;&#9;c0.61,0.73,0.54,2.85-0.3,10.16c-0.58,5.08-1.21,10.79-1.39,12.68C364.68,306.09,363.49,308.23,361.89,308.23z M368.34,359.18&#xA;&#9;&#9;&#9;l-1.63-1.07v-19.67c0-16.57,0.14-19.64,0.88-19.46c0.49,0.11,6.75,6.37,13.91,13.9c7.17,7.54,13.04,14.01,13.04,14.38&#xA;&#9;&#9;&#9;c0,0.38-5.53,3.45-12.28,6.84C370.07,360.2,369.96,360.24,368.34,359.18z M370.46,368.06c0.52,0.21,2.01,0.76,3.33,1.24&#xA;&#9;&#9;&#9;c2.48,0.89,12.3,4.65,14.49,5.54c0.69,0.28,2.52,0.97,4.06,1.54l2.81,1.03l0.18,4.69c0.21,5.59,0.23,5.56-7.37,9.27&#xA;&#9;&#9;&#9;c-2.92,1.43-5.88,2.92-6.57,3.31c-2.91,1.66-10.94,5.47-11.54,5.47c-0.36,0-1.21-0.56-1.9-1.25c-1.18-1.18-1.25-2.08-1.25-15.24&#xA;&#9;&#9;&#9;c0-13.8,0.02-14.01,1.41-14.98C368.89,368.14,369.94,367.86,370.46,368.06z M393.64,341.45c-0.34-0.64-5.7-6.47-11.9-12.94&#xA;&#9;&#9;&#9;c-6.2-6.48-11.28-12.28-11.28-12.89c0-1.78,3.41-2.22,16.26-2.13l8.44,0.06l0.17,14.54C395.49,342.21,395.21,344.4,393.64,341.45z&#xA;&#9;&#9;&#9; M394.84,304.48c-0.36,0-0.86-0.53-1.11-1.16c-0.48-1.24-9.16-12.39-14.12-18.14c-4.03-4.66-4.97-6.14-4.45-6.97&#xA;&#9;&#9;&#9;c0.23-0.39,0.89-0.51,1.46-0.28c0.57,0.23,2.86,0.84,5.1,1.36c2.24,0.52,6.18,1.44,8.75,2.04l4.69,1.11l0.17,11.02&#xA;&#9;&#9;&#9;C395.44,300.88,395.28,304.48,394.84,304.48z M362.23,262.59c0.38-1.78,1.09-2.56,3.85-4.22c3.78-2.27,4.7-2.49,4.14-1.04&#xA;&#9;&#9;&#9;c-0.21,0.54-0.56,3.36-0.79,6.25c-0.54,7.02-1.29,7.63-4.91,3.96C362,265,361.81,264.59,362.23,262.59z M349.09,271.92&#xA;&#9;&#9;&#9;c4.54-4.85,4.6-4.88,7.62-4.81c2.71,0.06,3.31,0.35,5.63,2.74c3.8,3.92,3.4,5-2.82,7.59c-5.1,2.13-7.68,3.15-12.28,4.86&#xA;&#9;&#9;&#9;c-1.42,0.53-4.3,1.78-6.41,2.76c-2.1,0.99-3.91,1.54-4.03,1.23C336.59,285.72,341.11,280.43,349.09,271.92z M327.95,304.17&#xA;&#9;&#9;&#9;c0.63-1.72,1.59-4.43,2.14-6.01c0.92-2.63,2.5-4.14,4.45-4.26c0.37-0.02,2.06,0.94,3.75,2.13c4.4,3.11,4.63,3.26,8.08,5.69&#xA;&#9;&#9;&#9;c1.72,1.21,4.53,3.15,6.25,4.31c5.3,3.6,6.99,5.22,6.06,5.84c-0.45,0.3-3.69,0.88-7.19,1.28c-3.5,0.41-9.19,1.16-12.62,1.68&#xA;&#9;&#9;&#9;c-8.42,1.26-13.36,1.23-13.87-0.1C324.64,313.76,325.26,311.58,327.95,304.17z M323.36,323.52c0.63-0.48,1.24-0.88,1.35-0.89&#xA;&#9;&#9;&#9;c0.13,0,2.16,1.14,4.53,2.55c3.9,2.32,4.33,2.77,4.31,4.53c-0.01,1.78-0.6,2.37-6.4,6.34c-3.51,2.41-6.71,4.46-7.1,4.56&#xA;&#9;&#9;&#9;C318.82,340.94,321.98,324.56,323.36,323.52z M323.47,370.29c-0.31-0.31-0.83-2.79-1.15-5.51c-0.33-2.73-1.02-7.35-1.54-10.27&#xA;&#9;&#9;&#9;c-1.29-7.16-1.26-8.13,0.31-8.13c0.69,0,3.58,0.76,6.41,1.68c2.82,0.92,5.34,1.98,5.59,2.34c0.86,1.24,0.46,4.41-0.77,5.98&#xA;&#9;&#9;&#9;c-0.68,0.86-1.23,1.75-1.24,1.98c-0.01,0.23-1.01,1.92-2.21,3.75c-1.21,1.84-2.79,4.56-3.52,6.05&#xA;&#9;&#9;&#9;C324.57,369.74,323.8,370.62,323.47,370.29z M332.81,390.92c-1.4-1.61-6.12-10.98-6.12-12.14c0-2.15,2.23-3.51,8.44-5.17&#xA;&#9;&#9;&#9;c3.44-0.92,7.8-2.09,9.69-2.6c1.89-0.52,4.66-1.21,6.15-1.53c1.49-0.32,3.46-0.98,4.38-1.46c1.79-0.94,3.44-1.23,4-0.67&#xA;&#9;&#9;&#9;c0.36,0.36-3.93,5.06-15.74,17.27C336.22,392.25,334.72,393.12,332.81,390.92z M350.67,413.38c-1.66-1.13-11.99-13.14-11.62-13.5&#xA;&#9;&#9;&#9;c0.23-0.24,0.99-0.28,1.69-0.09c0.69,0.19,3.8,0.93,6.89,1.64c3.1,0.71,6.49,1.56,7.55,1.88c1.06,0.33,2.38,0.59,2.95,0.59&#xA;&#9;&#9;&#9;c1.06,0,2.32,1.78,2.32,3.3c0,0.48-1.06,2.01-2.34,3.41C355.82,413.08,352.21,414.43,350.67,413.38z M371.04,428.22&#xA;&#9;&#9;&#9;c-0.84-0.74-3.81-2.83-6.62-4.65c-4.69-3.05-5.13-3.51-5.52-5.85c-0.45-2.64-0.23-3.16,2.8-6.47c1.69-1.84,3.23-2.19,4.21-0.95&#xA;&#9;&#9;&#9;c0.34,0.43,1.65,3.6,2.91,7.03c1.27,3.44,2.86,7.36,3.54,8.71C373.84,428.98,373.16,430.09,371.04,428.22z M393.86,425.76&#xA;&#9;&#9;&#9;c-0.37,0.38-3.16,1.66-6.2,2.86c-4.83,1.89-5.65,2.06-6.52,1.28c-0.54-0.49-1.75-1.08-2.68-1.31c-2.41-0.6-2.37-0.54-6.48-11.55&#xA;&#9;&#9;&#9;c-0.96-2.58-1.98-4.96-2.26-5.28c-0.71-0.82-0.64-3.47,0.08-3.47c0.33,0,0.78,0.31,1.01,0.68c0.39,0.64,7.45,5.32,16.44,10.92&#xA;&#9;&#9;&#9;C393.02,423.46,394.67,424.93,393.86,425.76z M395,421.3c-0.26-0.11-3.28-2.05-6.72-4.3c-3.44-2.25-8.71-5.63-11.71-7.5&#xA;&#9;&#9;&#9;c-8-4.99-8.05-4.88,6.24-12.06c6.45-3.25,11.94-5.77,12.19-5.61c0.26,0.15,0.47,6.89,0.47,14.98S395.26,421.42,395,421.3z&#xA;&#9;&#9;&#9; M394.83,373.58c-0.36,0.22-3.1-0.58-6.1-1.78c-3-1.2-8.17-3.21-11.5-4.47c-3.33-1.26-6.2-2.69-6.38-3.17&#xA;&#9;&#9;&#9;c-0.24-0.64,3.01-2.53,11.67-6.77c6.61-3.24,12.22-5.76,12.48-5.6c0.26,0.15,0.47,5.03,0.47,10.84&#xA;&#9;&#9;&#9;C395.47,369.22,395.23,373.33,394.83,373.58z M395.47,267.91c0,5.98-0.25,11.02-0.56,11.21c-0.31,0.19-1.93-0.06-3.6-0.54&#xA;&#9;&#9;&#9;c-4.28-1.25-11.73-2.86-13.23-2.86c-0.77,0-2.24-1.23-3.76-3.13c-2.76-3.46-2.68-2.42-1.11-13.7l0.73-5.26l3.73-1.46&#xA;&#9;&#9;&#9;c4.43-1.73,6.11-1.59,11.66,0.99C395.77,256.15,395.47,255.42,395.47,267.91z" class="st1"/>
		<g>
			<path d="M433.66,279.04c0.39,0.65,1.54,9.17,2.05,15.14c0.22,2.56,0.71,6.56,1.09,8.87&#xA;&#9;&#9;&#9;&#9;c0.67,4.14,0.66,4.24-1.23,6.21c-1.9,1.99-1.96,2-7.24,1.58c-2.93-0.24-8.55-0.62-12.48-0.86c-3.94-0.23-7.33-0.7-7.53-1.03&#xA;&#9;&#9;&#9;&#9;c-0.21-0.33,2.9-4.55,6.89-9.37c3.99-4.83,7.85-9.55,8.57-10.5c0.72-0.95,2.91-3.71,4.88-6.14&#xA;&#9;&#9;&#9;&#9;C432.11,278.69,433.02,277.97,433.66,279.04z" class="st1"/>
			<path d="M447.27,315.78c0-0.33,0.37-0.56,0.83-0.52c1.83,0.2,8.38,1.19,12.47,1.9c2.38,0.41,7.75,1.05,11.92,1.42&#xA;&#9;&#9;&#9;&#9;c7.55,0.68,10.17,1.53,7.63,2.47c-0.71,0.26-2.74,1.36-4.52,2.44c-2.8,1.7-3.95,1.97-8.32,2.03c-4.7,0.06-5.31-0.1-8.34-2.16&#xA;&#9;&#9;&#9;&#9;c-1.8-1.22-5.16-3.29-7.47-4.59C449.16,317.46,447.27,316.12,447.27,315.78z" class="st1"/>
			<path d="M453.8,323.83c3.41,2.22,6.44,4.04,6.74,4.04c0.29,0,0.73,1.51,0.99,3.36c0.49,3.69,0.77,3.13-6.25,12.4&#xA;&#9;&#9;&#9;&#9;c-1.72,2.27-5.33,7.12-8.04,10.78c-2.69,3.66-5.18,6.65-5.51,6.65c-0.35,0-0.57-8.88-0.52-20.94&#xA;&#9;&#9;&#9;&#9;c0.07-19.31,0.17-20.97,1.25-21.55C443.95,317.77,445.81,318.64,453.8,323.83z" class="st1"/>
			<path d="M470.15,335.45c0.8-0.27,13.73,8.49,14.07,9.52c0.24,0.73-8.58,3.59-10.9,3.54&#xA;&#9;&#9;&#9;&#9;c-0.67-0.02-1.81-0.47-2.52-1.02c-1.11-0.84-1.3-1.82-1.31-6.4C469.49,338.05,469.78,335.58,470.15,335.45z" class="st1"/>
			<path d="M475.1,366.66c5.28,8.83,5.74,9.85,4.49,9.84c-0.73,0-6.13-1.49-16.56-4.56c-2.01-0.59-6.63-1.87-10.25-2.82&#xA;&#9;&#9;&#9;&#9;c-3.63-0.96-6.7-2.07-6.84-2.49c-0.13-0.41,2.24-2,5.28-3.55c3.05-1.55,7.09-3.66,9-4.7c1.9-1.04,3.55-1.88,3.67-1.85&#xA;&#9;&#9;&#9;&#9;c0.11,0.02,0.8,0.3,1.53,0.62c0.73,0.32,2.11,0.75,3.06,0.95C469.85,358.4,471.25,360.21,475.1,366.66z" class="st1"/>
			<path d="M445.11,361.74c0-0.37,0.26-0.66,0.55-0.66c0.71,0,11.53-14.12,16.92-22.06c3.21-4.73,3.93-4.28,3.86,2.46&#xA;&#9;&#9;&#9;&#9;c-0.04,4.24-0.24,4.94-2.02,7c-1.09,1.27-1.98,2.95-1.98,3.76c0,1.16-1.15,2.04-5.5,4.26c-3.03,1.54-6.62,3.5-7.99,4.35&#xA;&#9;&#9;&#9;&#9;C446.28,362.53,445.1,362.8,445.11,361.74z" class="st1"/>
			<path d="M448.68,379.53c3.21,3.58,8.63,9.43,12.05,12.98c3.41,3.55,6.2,6.93,6.2,7.5c0,1.17-3.45,2.79-7.18,3.37&#xA;&#9;&#9;&#9;&#9;c-1.36,0.21-3.97,0.82-5.81,1.34c-7.17,2.04-9.54,2.21-11.34,0.78l-1.66-1.31l0.24-15.35c0.16-10.19,0.48-15.44,0.95-15.59&#xA;&#9;&#9;&#9;&#9;C442.51,373.11,445.46,375.94,448.68,379.53z" class="st1"/>
			<path d="M439.82,301.85c-0.19-2.02-0.83-8.09-1.43-13.5c-0.87-7.78-0.93-10.04-0.28-10.81&#xA;&#9;&#9;&#9;&#9;c0.9-1.07,2.29-1.18,4.31-0.3c0.73,0.32,4.16,1.7,7.64,3.07c3.47,1.38,7.51,3.02,8.97,3.65c1.46,0.64,4.24,1.71,6.18,2.4&#xA;&#9;&#9;&#9;&#9;c3.76,1.33,5.16,2.47,4.45,3.6c-0.24,0.38-2,1.72-3.9,2.97c-3.89,2.56-10.62,7.16-17.25,11.8c-2.45,1.72-4.89,3.12-5.4,3.12&#xA;&#9;&#9;&#9;&#9;C441.41,307.84,440.15,305.55,439.82,301.85z" class="st1"/>
			<path d="M421.27,356.56c-7.17-3.63-13.04-6.93-13.04-7.33c0-0.39,6.27-7.25,13.93-15.25&#xA;&#9;&#9;&#9;&#9;c7.65-7.99,14.34-14.62,14.86-14.73c0.79-0.18,0.92,3.08,0.86,20.71l-0.08,20.93l-1.74,1.13&#xA;&#9;&#9;&#9;&#9;C434.32,363.15,434.21,363.11,421.27,356.56z" class="st1"/>
			<path d="M436.26,372.13c1.47,1.04,1.49,1.26,1.44,15.94c-0.05,14-0.13,14.97-1.39,16.21&#xA;&#9;&#9;&#9;&#9;c-0.73,0.73-1.65,1.32-2.03,1.32c-0.64,0-9.17-4.09-12.26-5.87c-0.73-0.42-3.87-2.02-6.97-3.55c-8.07-3.97-8.06-3.95-7.81-9.89&#xA;&#9;&#9;&#9;&#9;l0.21-4.99l3-1.08c1.65-0.6,3.6-1.33,4.33-1.62c2.33-0.94,12.79-4.9,15.44-5.84c1.41-0.51,3-1.09,3.55-1.3&#xA;&#9;&#9;&#9;&#9;C434.32,371.25,435.43,371.56,436.26,372.13z" class="st1"/>
			<path d="M407.46,328.84l0.24-15.47l8.98-0.03c13.66-0.04,17.3,0.44,17.29,2.33c0,0.65-5.43,6.81-12.05,13.67&#xA;&#9;&#9;&#9;&#9;c-6.62,6.87-12.34,13.05-12.71,13.72C407.52,346.19,407.23,343.86,407.46,328.84z" class="st1"/>
			<path d="M407.6,292l0.22-11.72l4.99-1.16c2.74-0.64,6.94-1.6,9.32-2.14c2.38-0.54,4.82-1.19,5.43-1.43&#xA;&#9;&#9;&#9;&#9;c0.61-0.24,1.3-0.11,1.55,0.3c0.55,0.89-0.46,2.46-4.76,7.4c-5.3,6.1-14.57,17.92-15.09,19.24c-0.26,0.68-0.8,1.23-1.18,1.23&#xA;&#9;&#9;&#9;&#9;C407.6,303.72,407.44,299.9,407.6,292z" class="st1"/>
			<path d="M440.48,264.54c-3.87,3.88-4.67,3.24-5.21-4.24c-0.23-3.08-0.59-6.08-0.81-6.66&#xA;&#9;&#9;&#9;&#9;c-0.59-1.55,0.38-1.3,4.4,1.13c2.93,1.77,3.68,2.61,4.07,4.51C443.37,261.42,443.17,261.85,440.48,264.54z" class="st1"/>
			<path d="M469.89,284.61c-0.12,0.33-2.05-0.27-4.28-1.33c-2.24-1.06-5.3-2.39-6.81-2.97&#xA;&#9;&#9;&#9;&#9;c-4.89-1.84-7.63-2.94-13.05-5.22c-6.6-2.79-7.02-3.93-2.97-8.09c2.48-2.54,3.12-2.84,6-2.9c3.21-0.06,3.27-0.02,8.08,5.15&#xA;&#9;&#9;&#9;&#9;C465.33,278.35,470.12,283.99,469.89,284.61z" class="st1"/>
			<path d="M482.32,314.89c-0.54,1.42-5.8,1.43-14.76,0.05c-3.66-0.57-9.7-1.39-13.42-1.83&#xA;&#9;&#9;&#9;&#9;c-3.72-0.44-7.17-1.06-7.65-1.39c-0.99-0.66,0.81-2.39,6.47-6.19c1.83-1.23,4.84-3.29,6.67-4.57c3.69-2.57,3.93-2.73,8.62-6.02&#xA;&#9;&#9;&#9;&#9;c1.81-1.26,3.61-2.28,4-2.25c2.08,0.14,3.75,1.76,4.72,4.55c0.58,1.69,1.59,4.57,2.26,6.4&#xA;&#9;&#9;&#9;&#9;C482.07,311.55,482.72,313.88,482.32,314.89z" class="st1"/>
			<path d="M487.5,342.47c-0.42-0.11-3.81-2.31-7.54-4.88c-6.15-4.25-6.77-4.87-6.78-6.77&#xA;&#9;&#9;&#9;&#9;c-0.01-1.88,0.45-2.35,4.61-4.81c2.53-1.49,4.69-2.7,4.83-2.7c0.12,0.01,0.76,0.44,1.43,0.95&#xA;&#9;&#9;&#9;&#9;C485.51,325.38,488.81,342.82,487.5,342.47z" class="st1"/>
			<path d="M481.76,371.74c-0.77-1.59-2.44-4.49-3.72-6.45c-1.28-1.95-2.33-3.75-2.34-4c-0.01-0.24-0.59-1.19-1.31-2.11&#xA;&#9;&#9;&#9;&#9;c-1.3-1.67-1.72-5.04-0.79-6.36c0.27-0.39,2.95-1.51,5.96-2.47c3.01-0.97,6.09-1.77,6.83-1.76c1.67,0.01,1.71,1.04,0.3,8.65&#xA;&#9;&#9;&#9;&#9;c-0.57,3.1-1.33,8.02-1.68,10.92s-0.92,5.54-1.25,5.86C483.39,374.37,482.58,373.44,481.76,371.74z" class="st1"/>
			<path d="M462.27,389.19c-12.52-13.03-17.06-18.05-16.68-18.44c0.59-0.59,2.34-0.28,4.25,0.73&#xA;&#9;&#9;&#9;&#9;c0.97,0.52,3.06,1.23,4.65,1.57c1.58,0.35,4.52,1.09,6.53,1.65c2.01,0.55,6.65,1.81,10.3,2.81c6.6,1.79,8.97,3.25,8.96,5.53&#xA;&#9;&#9;&#9;&#9;c0,1.24-5.06,11.18-6.56,12.9C471.68,398.27,470.09,397.33,462.27,389.19z" class="st1"/>
			<path d="M446.74,416.77c-1.36-1.49-2.48-3.13-2.48-3.63c0.01-1.62,1.35-3.5,2.48-3.5c0.61,0,2.02-0.27,3.14-0.61&#xA;&#9;&#9;&#9;&#9;c1.13-0.34,4.74-1.23,8.04-1.97c3.3-0.75,6.6-1.51,7.34-1.72c0.75-0.2,1.56-0.15,1.8,0.1c0.39,0.39-10.65,13.12-12.42,14.32&#xA;&#9;&#9;&#9;&#9;C452.99,420.87,449.16,419.42,446.74,416.77z" class="st1"/>
			<path d="M431.5,433.16c0.73-1.43,2.44-5.6,3.8-9.25c1.36-3.65,2.77-7.01,3.13-7.47c1.05-1.32,2.69-0.94,4.48,1.03&#xA;&#9;&#9;&#9;&#9;c3.21,3.54,3.44,4.08,2.96,6.9c-0.43,2.49-0.9,2.97-5.9,6.2c-2.99,1.92-6.16,4.14-7.06,4.92&#xA;&#9;&#9;&#9;&#9;C430.65,437.45,429.93,436.27,431.5,433.16z" class="st1"/>
			<path d="M415.7,426.53c9.59-5.92,17.11-10.87,17.53-11.55c0.25-0.4,0.73-0.72,1.08-0.72c0.77,0,0.82,2.82,0.07,3.69&#xA;&#9;&#9;&#9;&#9;c-0.3,0.34-1.39,2.88-2.42,5.61c-4.41,11.71-4.37,11.64-6.94,12.27c-0.99,0.24-2.28,0.87-2.86,1.39&#xA;&#9;&#9;&#9;&#9;c-0.92,0.82-1.8,0.65-6.93-1.39c-3.23-1.28-6.2-2.66-6.59-3.06C407.78,431.88,409.54,430.32,415.7,426.53z" class="st1"/>
			<path d="M407,412.58c0.03-8.61,0.28-15.78,0.56-15.94c0.27-0.17,6.1,2.54,12.95,6.02&#xA;&#9;&#9;&#9;&#9;c15.18,7.7,15.12,7.58,6.59,12.86c-3.2,1.98-8.82,5.56-12.49,7.94s-6.9,4.43-7.17,4.55C407.17,428.14,406.97,421.19,407,412.58z" class="st1"/>
			<path d="M407.17,365.59c0.02-6.18,0.27-11.37,0.54-11.53c0.27-0.17,6.24,2.54,13.26,6.01&#xA;&#9;&#9;&#9;&#9;c9.2,4.54,12.66,6.57,12.39,7.24c-0.2,0.51-3.26,2.02-6.8,3.35c-3.54,1.33-9.05,3.45-12.25,4.71c-3.19,1.27-6.11,2.11-6.49,1.87&#xA;&#9;&#9;&#9;&#9;C407.39,376.98,407.15,372.6,407.17,365.59z" class="st1"/>
			<path d="M414.13,249.14c5.92-2.73,7.7-2.87,12.41-1.01l3.96,1.56l0.76,5.6c1.63,12.01,1.72,10.9-1.23,14.57&#xA;&#9;&#9;&#9;&#9;c-1.62,2.02-3.19,3.32-4.01,3.32c-1.6-0.01-9.53,1.68-14.09,3c-1.78,0.51-3.5,0.76-3.83,0.56c-0.33-0.21-0.58-5.57-0.56-11.93&#xA;&#9;&#9;&#9;&#9;C407.59,251.53,407.27,252.3,414.13,249.14z" class="st1"/>
		</g>
	</g>
</g>
</svg>