<?xml version="1.0" encoding="utf-8"?>
<!-- Generator: Adobe Illustrator 25.2.0, SVG Export Plug-In . SVG Version: 6.00 Build 0)  -->
<svg version="1.1" id="Layer_1" xmlns="http://www.w3.org/2000/svg" xmlns:xlink="http://www.w3.org/1999/xlink" x="0px" y="0px"
	 viewBox="0 0 800 800" style="enable-background:new 0 0 800 800;" xml:space="preserve">
<style type="text/css">
	.st0{fill:#314691;}
	.st1{fill:#FFFFFF;}
	.st2{fill:url(#SVGID_1_);}
	.st3{fill:url(#SVGID_2_);}
	.st4{fill:url(#SVGID_3_);}
	.st5{fill:url(#SVGID_4_);}
	.st6{fill:url(#SVGID_5_);}
	.st7{fill:url(#SVGID_6_);}
	.st8{fill:url(#SVGID_7_);}
	.st9{fill:url(#SVGID_8_);}
	.st10{fill:url(#SVGID_9_);}
	.st11{fill:url(#SVGID_10_);}
	.st12{fill:url(#SVGID_11_);}
	.st13{fill:url(#SVGID_12_);}
	.st14{fill:url(#SVGID_13_);}
	.st15{fill:url(#SVGID_14_);}
	.st16{fill:url(#SVGID_15_);}
	.st17{fill:url(#SVGID_16_);}
	.st18{fill:url(#SVGID_17_);}
	.st19{fill:url(#SVGID_18_);}
	.st20{fill:url(#SVGID_19_);}
	.st21{fill:url(#SVGID_20_);}
	.st22{fill:url(#SVGID_21_);}
	.st23{fill:url(#SVGID_22_);}
	.st24{fill:url(#SVGID_23_);}
	.st25{fill:url(#SVGID_24_);}
	.st26{fill:url(#SVGID_25_);}
	.st27{fill:url(#SVGID_26_);}
	.st28{fill:url(#SVGID_27_);}
	.st29{fill:url(#SVGID_28_);}
	.st30{fill:url(#SVGID_29_);}
	.st31{fill:url(#SVGID_30_);}
	.st32{fill:url(#SVGID_31_);}
	.st33{fill:url(#SVGID_32_);}
	.st34{fill:url(#SVGID_33_);}
	.st35{fill:url(#SVGID_34_);}
	.st36{fill:url(#SVGID_35_);}
	.st37{fill:url(#SVGID_36_);}
	.st38{fill:url(#SVGID_37_);}
	.st39{fill:url(#SVGID_38_);}
	.st40{fill:url(#SVGID_39_);}
	.st41{fill:url(#SVGID_40_);}
	.st42{fill:url(#SVGID_41_);}
	.st43{fill:url(#SVGID_42_);}
	.st44{fill:url(#SVGID_43_);}
	.st45{fill:url(#SVGID_44_);}
	.st46{fill:url(#SVGID_45_);}
	.st47{fill:url(#SVGID_46_);}
	.st48{fill:url(#SVGID_47_);}
	.st49{fill:url(#SVGID_48_);}
	.st50{fill:url(#SVGID_49_);}
	.st51{fill:url(#SVGID_50_);}
	.st52{fill:url(#SVGID_51_);}
	.st53{fill:url(#SVGID_52_);}
	.st54{fill:url(#SVGID_53_);}
	.st55{fill:url(#SVGID_54_);}
	.st56{fill:url(#SVGID_55_);}
	.st57{fill:url(#SVGID_56_);}
	.st58{fill:url(#SVGID_57_);}
	.st59{fill:url(#SVGID_58_);}
	.st60{fill:url(#SVGID_59_);}
	.st61{fill:url(#SVGID_60_);}
	.st62{fill:url(#SVGID_61_);}
	.st63{fill:url(#SVGID_62_);}
	.st64{fill:url(#SVGID_63_);}
	.st65{fill:url(#SVGID_64_);}
	.st66{fill:url(#SVGID_65_);}
	.st67{fill:url(#SVGID_66_);}
	.st68{fill:url(#SVGID_67_);}
	.st69{fill:url(#SVGID_68_);}
	.st70{fill:url(#SVGID_69_);}
	.st71{fill:url(#SVGID_70_);}
	.st72{fill:url(#SVGID_71_);}
	.st73{fill:url(#SVGID_72_);}
	.st74{fill:url(#SVGID_73_);}
	.st75{fill:url(#SVGID_74_);}
	.st76{fill:url(#SVGID_75_);}
</style>
<rect class="st0" width="800" height="800"/>
<g>
	<g>
		<path class="st1" d="M397,276.87l-2.11-2c-2.95-2.8-20.19-11.08-22.65-10.88c-0.35,0.03-4.05,1.28-8.22,2.77
			c-4.17,1.49-10.92,4.93-14.99,7.64c-6.91,4.59-7.68,4.89-11.34,4.38c-3.35-0.45-4.32-0.21-6.64,1.75
			c-1.94,1.63-2.72,3.08-2.72,5.01c0,2.61-1.98,5.2-13.51,17.69c-1.16,1.26-4.1,4.67-6.55,7.58c-5.34,6.38-5.64,6.6-8.59,6.62
			c-3.98,0.03-7.04,3.18-7.04,7.23c0,1.93,0.45,4.24,1.01,5.12c0.8,1.29,0.26,3.73-2.74,12.26c-2.06,5.85-4.14,11.94-4.61,13.53
			c-0.59,1.95-1.59,3.08-3.08,3.44c-2.69,0.68-5.74,4.38-5.74,6.95c0.01,1.03,0.85,3.26,1.87,4.95c1.64,2.69,1.79,3.88,1.26,9.65
			c-0.34,3.62-1.16,9.87-1.81,13.88c-1.01,6.14-1,8.58,0.04,15.33c4.67,30.62,4.63,30.03,2.69,31.65c-1.97,1.63-2.61,6.61-1.22,9.5
			c0.83,1.74,2.27,2.81,4.73,3.5c3.68,1.03,3.92,1.33,9.36,11.77c2.33,4.48,2.61,5.78,2.14,9.76c-0.49,4.13-0.31,4.83,1.77,6.9
			c1.44,1.44,3.29,2.3,4.94,2.3c2.85,0,3.32,0.43,14.07,12.88c4.58,5.29,6.34,8.1,7.01,11.12c1.07,4.86,3.68,6.63,8.72,5.9
			c2.91-0.43,4.14,0.03,8.99,3.31c3.1,2.1,7.87,5.21,10.62,6.92c3.6,2.25,5.13,3.79,5.49,5.58c0.29,1.48,1.61,3.14,3.31,4.17
			c3.26,1.98,6,1.37,9.71-2.17c1.23-1.16,5.84-3.59,10.26-5.39c12.58-5.12,13.75-5.72,14.71-7.51c0.6-1.12,0.89-42.53,0.88-122.4
			L397,276.87z M362.38,318.03c2.62,3.26,5.55,6.98,6.51,8.25c0.96,1.28,6.11,7.63,11.44,14.12c5.33,6.49,9.47,12.15,9.2,12.6
			c-0.27,0.44-4.81,1.04-10.1,1.34c-5.28,0.3-12.82,0.79-16.74,1.1c-7.08,0.54-7.15,0.53-9.7-2.15c-2.52-2.65-2.53-2.78-1.61-8.33
			c0.52-3.1,1.2-8.46,1.5-11.89c0.7-8,2.29-19.43,2.82-20.29C356.56,311.34,357.78,312.31,362.38,318.03z M331.61,365.95
			c-3.1,1.74-7.63,4.5-10.04,6.12c-4.08,2.75-4.89,2.95-11.2,2.85c-5.86-0.09-7.39-0.46-11.14-2.76c-2.38-1.45-5.1-2.93-6.05-3.29
			c-3.4-1.28,0.12-2.4,10.25-3.27c5.6-0.48,12.8-1.31,15.99-1.85c5.48-0.92,14.27-2.22,16.73-2.48c0.62-0.06,1.12,0.25,1.12,0.7
			C337.26,362.43,334.72,364.21,331.61,365.95z M343.72,365.74c1.45,0.78,1.57,3.01,1.57,28.9c0,16.16-0.34,28.07-0.8,28.07
			c-0.45,0-3.76-4.02-7.36-8.95c-3.61-4.92-8.43-11.44-10.73-14.5c-9.38-12.46-9-11.71-8.32-16.65c0.35-2.48,0.95-4.5,1.34-4.5
			c0.4,0,4.48-2.42,9.06-5.38C339.21,365.81,341.71,364.66,343.72,365.74z M307.34,395.8c-0.03,6.15-0.29,7.46-1.78,8.58
			c-0.96,0.73-2.49,1.34-3.39,1.36c-3.1,0.05-14.91-3.83-14.59-4.8c0.46-1.39,17.84-13.07,18.91-12.7
			C306.99,388.41,307.36,391.72,307.34,395.8z M308.62,418.62c1.28-0.27,3.13-0.84,4.11-1.26c0.98-0.43,1.91-0.8,2.05-0.83
			c0.15-0.04,2.36,1.09,4.91,2.5c2.55,1.4,7.97,4.26,12.04,6.34c4.07,2.09,7.24,4.24,7.06,4.78c-0.19,0.55-4.32,2.03-9.19,3.3
			c-4.86,1.27-11.05,2.95-13.76,3.74c-14,4.07-21.25,6.04-22.23,6.04c-1.67,0-1.04-1.36,6.07-13.18
			C304.89,421.43,306.78,419.01,308.62,418.62z M334.79,422.4c-1.83-1.15-6.64-3.8-10.69-5.88c-5.83-3-7.36-4.18-7.36-5.74
			c0-1.08-1.19-3.35-2.64-5.05c-2.37-2.77-2.64-3.72-2.68-9.4c-0.05-9.03,0.91-9.63,5.19-3.27c7.18,10.67,21.63,29.66,22.58,29.66
			c0.4,0,0.74,0.4,0.74,0.89C339.94,425.02,338.37,424.66,334.79,422.4z M343.89,439.05c0.63,0.21,1.03,7.24,1.2,20.91l0.24,20.59
			l-2.23,1.75c-2.42,1.9-5.6,1.67-15.2-1.11c-2.45-0.7-5.96-1.53-7.78-1.82c-5-0.79-9.62-2.98-9.62-4.55
			c0-0.77,3.76-5.28,8.35-10.03c4.59-4.75,11.89-12.55,16.22-17.34C339.39,442.65,343.36,438.87,343.89,439.05z M342.87,351.35
			c-0.69,0-3.94-1.89-7.23-4.21c-8.88-6.25-17.87-12.45-23.08-15.9c-2.54-1.68-4.89-3.48-5.21-4c-0.95-1.53,0.94-3.04,5.99-4.81
			c2.6-0.92,6.34-2.35,8.3-3.19c1.96-0.84,7.39-3.02,12.04-4.85c4.67-1.82,9.28-3.66,10.26-4.08c2.71-1.16,4.58-1.02,5.78,0.43
			c0.87,1.04,0.78,4.07-0.43,14.5c-0.83,7.25-1.72,15.39-1.98,18.09C346.86,348.29,345.16,351.35,342.87,351.35z M352.08,424.03
			l-2.33-1.53v-28.06c0-23.64,0.2-28.02,1.25-27.77c0.7,0.15,9.62,9.08,19.85,19.83c10.23,10.76,18.6,19.99,18.6,20.52
			c0,0.54-7.89,4.92-17.52,9.76C354.55,425.5,354.4,425.55,352.08,424.03z M355.1,436.7c0.74,0.29,2.87,1.08,4.75,1.77
			c3.54,1.28,17.55,6.64,20.67,7.9c0.98,0.39,3.59,1.38,5.8,2.19l4.01,1.46l0.26,6.69c0.3,7.97,0.33,7.94-10.52,13.23
			c-4.17,2.04-8.39,4.17-9.37,4.73c-4.16,2.37-15.61,7.81-16.47,7.81c-0.51,0-1.73-0.8-2.71-1.78c-1.68-1.68-1.78-2.97-1.78-21.75
			c0-19.69,0.03-19.98,2.01-21.36C352.86,436.82,354.36,436.41,355.1,436.7z M388.17,398.74c-0.49-0.91-8.13-9.22-16.98-18.47
			c-8.85-9.24-16.09-17.52-16.09-18.39c0-2.53,4.87-3.17,23.19-3.04l12.04,0.09l0.24,20.74
			C390.81,399.82,390.42,402.95,388.17,398.74z M389.88,346c-0.52,0-1.23-0.75-1.58-1.66c-0.69-1.78-13.07-17.67-20.14-25.88
			c-5.74-6.65-7.09-8.76-6.35-9.95c0.33-0.55,1.27-0.72,2.08-0.39c0.81,0.33,4.08,1.2,7.27,1.94c3.19,0.74,8.81,2.05,12.49,2.92
			l6.69,1.58l0.24,15.72C390.75,340.87,390.52,346,389.88,346z M343.36,286.23c0.54-2.54,1.55-3.66,5.49-6.02
			c5.4-3.24,6.7-3.56,5.91-1.49c-0.3,0.78-0.8,4.79-1.12,8.92c-0.77,10.02-1.84,10.88-7.01,5.66
			C343.03,289.68,342.77,289.1,343.36,286.23z M324.61,299.55c6.48-6.91,6.57-6.97,10.86-6.87c3.87,0.09,4.73,0.5,8.04,3.92
			c5.41,5.59,4.84,7.13-4.02,10.83c-7.27,3.03-10.95,4.5-17.52,6.94c-2.02,0.76-6.14,2.53-9.14,3.94c-3,1.41-5.58,2.2-5.74,1.76
			C306.78,319.24,313.23,311.69,324.61,299.55z M294.46,345.55c0.9-2.45,2.27-6.32,3.06-8.57c1.31-3.75,3.57-5.91,6.35-6.08
			c0.53-0.04,2.93,1.34,5.35,3.04c6.28,4.43,6.6,4.66,11.53,8.12c2.45,1.72,6.47,4.5,8.92,6.15c7.56,5.13,9.97,7.45,8.64,8.33
			c-0.64,0.43-5.26,1.25-10.26,1.82c-5,0.58-13.1,1.65-18.01,2.39c-12.02,1.8-19.06,1.76-19.79-0.14
			C289.74,359.24,290.62,356.12,294.46,345.55z M287.91,373.16c0.9-0.68,1.77-1.25,1.93-1.27c0.19,0,3.09,1.63,6.47,3.64
			c5.56,3.31,6.17,3.95,6.15,6.47c-0.02,2.54-0.86,3.38-9.13,9.05c-5.01,3.43-9.57,6.37-10.13,6.51
			C281.43,398.02,285.94,374.65,287.91,373.16z M288.07,439.88c-0.44-0.44-1.18-3.98-1.64-7.87c-0.46-3.89-1.45-10.49-2.2-14.66
			c-1.85-10.21-1.79-11.6,0.45-11.6c0.99,0,5.11,1.08,9.14,2.4c4.02,1.31,7.62,2.82,7.97,3.35c1.23,1.78,0.65,6.29-1.1,8.53
			c-0.96,1.23-1.76,2.5-1.77,2.82c-0.01,0.33-1.44,2.74-3.16,5.35c-1.73,2.62-3.99,6.5-5.02,8.63
			C289.64,439.11,288.54,440.36,288.07,439.88z M301.39,469.32c-2-2.3-8.73-15.66-8.73-17.32c0-3.07,3.18-5.01,12.04-7.38
			c4.91-1.31,11.13-2.98,13.83-3.71c2.7-0.74,6.65-1.72,8.77-2.18c2.13-0.45,4.94-1.4,6.24-2.09c2.56-1.35,4.91-1.75,5.7-0.95
			c0.51,0.52-5.6,7.23-22.45,24.64C306.26,471.21,304.12,472.46,301.39,469.32z M326.88,501.35c-2.36-1.61-17.11-18.74-16.58-19.26
			c0.33-0.34,1.42-0.39,2.42-0.12c0.99,0.28,5.41,1.32,9.83,2.34c4.42,1.02,9.26,2.22,10.77,2.69s3.4,0.84,4.21,0.84
			c1.52,0,3.31,2.53,3.31,4.7c0,0.68-1.51,2.87-3.35,4.86C334.22,500.93,329.07,502.85,326.88,501.35z M355.93,522.53
			c-1.2-1.05-5.44-4.04-9.44-6.63c-6.69-4.35-7.31-5-7.88-8.34c-0.64-3.77-0.32-4.5,4-9.23c2.41-2.63,4.61-3.13,6.01-1.36
			c0.48,0.62,2.35,5.13,4.16,10.04c1.81,4.91,4.08,10.5,5.05,12.43C359.93,523.62,358.96,525.2,355.93,522.53z M388.48,519.02
			c-0.53,0.54-4.51,2.37-8.85,4.08c-6.89,2.7-8.06,2.93-9.29,1.83c-0.78-0.7-2.5-1.54-3.83-1.87c-3.43-0.86-3.38-0.77-9.24-16.48
			c-1.37-3.68-2.82-7.07-3.22-7.54c-1.01-1.17-0.92-4.95,0.11-4.95c0.46,0,1.11,0.44,1.45,0.97c0.56,0.91,10.62,7.59,23.45,15.57
			C387.3,515.74,389.64,517.84,388.48,519.02z M390.11,512.66c-0.37-0.16-4.68-2.93-9.59-6.14c-4.91-3.21-12.43-8.03-16.71-10.7
			c-11.41-7.12-11.49-6.96,8.9-17.21c9.2-4.63,17.03-8.23,17.39-8.01c0.37,0.21,0.67,9.83,0.67,21.37S390.48,512.83,390.11,512.66z
			 M389.86,444.59c-0.51,0.31-4.42-0.83-8.7-2.54c-4.28-1.71-11.66-4.58-16.4-6.38c-4.75-1.8-8.84-3.84-9.11-4.52
			c-0.35-0.91,4.3-3.6,16.65-9.65c9.43-4.62,17.44-8.22,17.8-7.99c0.37,0.21,0.67,7.17,0.67,15.46
			C390.78,438.36,390.44,444.23,389.86,444.59z M390.78,293.82c0,8.53-0.36,15.72-0.8,15.99c-0.44,0.27-2.75-0.08-5.13-0.77
			c-6.11-1.78-16.73-4.09-18.88-4.09c-1.1,0-3.19-1.75-5.36-4.47c-3.93-4.94-3.82-3.45-1.58-19.54l1.04-7.5l5.32-2.08
			c6.32-2.47,8.72-2.27,16.64,1.41C391.21,277.04,390.78,276.01,390.78,293.82z"/>
		<g>
			<path class="st1" d="M445.27,309.7c0.56,0.92,2.2,13.09,2.92,21.6c0.31,3.66,1.01,9.35,1.55,12.66c0.96,5.91,0.94,6.05-1.75,8.86
				c-2.72,2.84-2.79,2.86-10.32,2.25c-4.17-0.34-12.19-0.89-17.81-1.23c-5.63-0.33-10.46-1-10.74-1.46
				c-0.29-0.48,4.13-6.49,9.83-13.36c5.69-6.89,11.19-13.63,12.22-14.98c1.03-1.35,4.16-5.3,6.96-8.75
				C443.05,309.2,444.36,308.18,445.27,309.7z"/>
			<path class="st1" d="M464.69,362.13c0-0.47,0.53-0.8,1.19-0.74c2.61,0.28,11.96,1.7,17.79,2.7c3.4,0.58,11.05,1.49,17.01,2.03
				c10.77,0.97,14.51,2.18,10.89,3.52c-1.01,0.38-3.91,1.94-6.45,3.48c-4,2.42-5.63,2.82-11.86,2.89c-6.71,0.08-7.57-0.14-11.9-3.08
				c-2.57-1.74-7.37-4.69-10.66-6.55C467.38,364.52,464.69,362.61,464.69,362.13z"/>
			<path class="st1" d="M473.99,373.61c4.87,3.17,9.19,5.76,9.62,5.76c0.42,0,1.05,2.16,1.41,4.8c0.7,5.26,1.1,4.46-8.92,17.69
				c-2.46,3.24-7.61,10.16-11.47,15.38c-3.84,5.22-7.39,9.49-7.86,9.49c-0.49,0-0.81-12.67-0.74-29.87
				c0.1-27.55,0.24-29.92,1.78-30.74C459.94,364.96,462.6,366.2,473.99,373.61z"/>
			<path class="st1" d="M497.33,390.19c1.14-0.38,19.58,12.11,20.07,13.59c0.34,1.04-12.24,5.12-15.55,5.05
				c-0.96-0.02-2.58-0.67-3.6-1.46c-1.58-1.2-1.86-2.6-1.86-9.14C496.38,393.89,496.8,390.36,497.33,390.19z"/>
			<path class="st1" d="M504.39,434.7c7.53,12.6,8.19,14.05,6.41,14.04c-1.04,0-8.75-2.13-23.63-6.51
				c-2.87-0.85-9.45-2.66-14.62-4.03c-5.18-1.37-9.57-2.96-9.76-3.55c-0.19-0.58,3.2-2.85,7.54-5.06c4.35-2.2,10.12-5.22,12.84-6.7
				c2.71-1.49,5.07-2.68,5.23-2.64c0.15,0.03,1.14,0.43,2.18,0.89c1.04,0.45,3,1.06,4.37,1.35
				C496.89,422.93,498.9,425.51,504.39,434.7z"/>
			<path class="st1" d="M461.6,427.69c0-0.52,0.36-0.95,0.79-0.95c1.01,0,16.45-20.15,24.14-31.47c4.58-6.75,5.6-6.1,5.51,3.5
				c-0.06,6.05-0.35,7.05-2.88,9.99c-1.55,1.81-2.82,4.21-2.83,5.36c-0.01,1.66-1.63,2.92-7.85,6.08c-4.32,2.2-9.44,5-11.39,6.21
				C463.27,428.81,461.59,429.2,461.6,427.69z"/>
			<path class="st1" d="M466.69,453.07c4.58,5.11,12.32,13.45,17.19,18.51c4.87,5.07,8.85,9.88,8.84,10.7
				c-0.01,1.67-4.92,3.98-10.25,4.8c-1.94,0.31-5.67,1.17-8.28,1.91c-10.22,2.91-13.61,3.15-16.18,1.12l-2.37-1.87l0.34-21.9
				c0.22-14.54,0.68-22.03,1.35-22.24C457.9,443.91,462.1,447.95,466.69,453.07z"/>
			<path class="st1" d="M454.05,342.24c-0.26-2.88-1.18-11.54-2.04-19.25c-1.24-11.1-1.32-14.32-0.4-15.42
				c1.29-1.53,3.27-1.68,6.15-0.43c1.04,0.45,5.94,2.42,10.9,4.38c4.95,1.96,10.71,4.31,12.79,5.21c2.08,0.91,6.06,2.44,8.82,3.43
				c5.36,1.9,7.36,3.52,6.35,5.14c-0.34,0.55-2.85,2.46-5.56,4.23c-5.56,3.65-15.15,10.21-24.61,16.83c-3.5,2.45-6.97,4.45-7.7,4.45
				C456.33,350.79,454.53,347.53,454.05,342.24z"/>
			<path class="st1" d="M427.59,420.3c-10.23-5.18-18.6-9.88-18.6-10.45c0-0.56,8.94-10.35,19.87-21.76
				c10.92-11.4,20.45-20.86,21.19-21.02c1.12-0.26,1.31,4.4,1.22,29.55l-0.11,29.86l-2.48,1.61
				C446.21,429.7,446.05,429.64,427.59,420.3z"/>
			<path class="st1" d="M448.97,442.51c2.1,1.48,2.13,1.79,2.05,22.74c-0.07,19.98-0.19,21.35-1.98,23.13
				c-1.05,1.04-2.35,1.89-2.89,1.89c-0.91,0-13.08-5.83-17.49-8.37c-1.04-0.6-5.52-2.88-9.95-5.07
				c-11.52-5.67-11.49-5.63-11.14-14.12l0.3-7.12l4.28-1.54c2.35-0.86,5.13-1.9,6.18-2.31c3.33-1.34,18.25-6.98,22.02-8.33
				c2.01-0.72,4.28-1.55,5.07-1.86C446.2,441.26,447.8,441.69,448.97,442.51z"/>
			<path class="st1" d="M407.89,380.75l0.34-22.06l12.81-0.05c19.49-0.06,24.67,0.63,24.66,3.33c0,0.93-7.74,9.71-17.19,19.51
				c-9.45,9.8-17.61,18.61-18.13,19.58C407.97,405.51,407.57,402.19,407.89,380.75z"/>
			<path class="st1" d="M408.09,328.2l0.32-16.72l7.12-1.65c3.91-0.91,9.9-2.28,13.3-3.05c3.4-0.78,6.88-1.69,7.74-2.04
				c0.86-0.35,1.86-0.16,2.21,0.43c0.78,1.27-0.66,3.51-6.8,10.56c-7.56,8.7-20.79,25.57-21.53,27.45
				c-0.37,0.97-1.14,1.76-1.69,1.76C408.09,344.92,407.86,339.46,408.09,328.2z"/>
			<path class="st1" d="M455,289.02c-5.52,5.54-6.66,4.62-7.44-6.04c-0.33-4.4-0.84-8.67-1.16-9.5c-0.84-2.2,0.55-1.86,6.28,1.61
				c4.18,2.53,5.25,3.72,5.81,6.43C459.12,284.57,458.83,285.18,455,289.02z"/>
			<path class="st1" d="M496.96,317.66c-0.17,0.47-2.92-0.38-6.11-1.89c-3.19-1.51-7.56-3.42-9.71-4.23
				c-6.98-2.63-10.89-4.2-18.61-7.45c-9.42-3.97-10.02-5.61-4.24-11.54c3.53-3.62,4.45-4.06,8.57-4.14
				c4.57-0.09,4.67-0.03,11.53,7.35C490.45,308.72,497.28,316.77,496.96,317.66z"/>
			<path class="st1" d="M514.69,360.86c-0.78,2.02-8.27,2.04-21.05,0.07c-5.22-0.81-13.84-1.98-19.15-2.61
				c-5.31-0.63-10.23-1.52-10.91-1.98c-1.41-0.94,1.16-3.4,9.23-8.83c2.62-1.76,6.9-4.69,9.51-6.51c5.26-3.66,5.6-3.9,12.3-8.59
				c2.58-1.8,5.15-3.26,5.71-3.22c2.96,0.2,5.35,2.51,6.73,6.5c0.83,2.4,2.27,6.52,3.22,9.13
				C514.34,356.08,515.25,359.41,514.69,360.86z"/>
			<path class="st1" d="M522.07,400.19c-0.6-0.15-5.44-3.29-10.76-6.97c-8.78-6.06-9.66-6.95-9.67-9.66
				c-0.01-2.68,0.65-3.36,6.57-6.86c3.6-2.12,6.7-3.85,6.89-3.85c0.17,0.02,1.09,0.63,2.05,1.36
				C519.24,375.81,523.95,400.69,522.07,400.19z"/>
			<path class="st1" d="M513.89,441.95c-1.09-2.26-3.48-6.4-5.31-9.2c-1.82-2.79-3.33-5.36-3.34-5.71
				c-0.01-0.34-0.85-1.69-1.87-3.01c-1.85-2.39-2.45-7.19-1.13-9.08c0.38-0.56,4.21-2.15,8.5-3.53c4.29-1.39,8.68-2.52,9.74-2.52
				c2.38,0.01,2.43,1.48,0.43,12.34c-0.81,4.43-1.89,11.45-2.4,15.58s-1.31,7.9-1.78,8.36
				C516.22,445.71,515.06,444.38,513.89,441.95z"/>
			<path class="st1" d="M486.09,466.85c-17.86-18.59-24.34-25.75-23.79-26.3c0.85-0.84,3.34-0.41,6.06,1.04
				c1.38,0.74,4.37,1.75,6.64,2.25c2.26,0.49,6.45,1.55,9.32,2.35c2.86,0.79,9.48,2.59,14.7,4c9.42,2.55,12.8,4.63,12.78,7.9
				c-0.01,1.77-7.22,15.96-9.36,18.4C499.51,479.81,497.24,478.47,486.09,466.85z"/>
			<path class="st1" d="M463.92,506.2c-1.95-2.12-3.54-4.46-3.54-5.19c0.01-2.31,1.93-4.99,3.54-4.99c0.86,0,2.88-0.39,4.48-0.88
				c1.61-0.49,6.76-1.75,11.47-2.81c4.7-1.06,9.41-2.16,10.47-2.45c1.06-0.28,2.22-0.22,2.57,0.14c0.56,0.55-15.2,18.72-17.72,20.43
				C472.85,512.04,467.38,509.97,463.92,506.2z"/>
			<path class="st1" d="M442.19,529.57c1.04-2.05,3.47-7.99,5.42-13.2c1.94-5.21,3.95-10.01,4.46-10.66
				c1.5-1.88,3.84-1.34,6.39,1.47c4.58,5.05,4.91,5.83,4.22,9.84c-0.61,3.55-1.28,4.24-8.41,8.84c-4.26,2.74-8.79,5.9-10.07,7.01
				C440.97,535.7,439.94,534.02,442.19,529.57z"/>
			<path class="st1" d="M419.64,520.12c13.68-8.44,24.41-15.51,25.01-16.48c0.36-0.57,1.05-1.03,1.54-1.03
				c1.09,0,1.17,4.03,0.09,5.27c-0.43,0.49-1.98,4.1-3.46,8.01c-6.3,16.7-6.24,16.61-9.9,17.5c-1.42,0.35-3.25,1.24-4.08,1.98
				c-1.31,1.17-2.57,0.92-9.88-1.98c-4.61-1.83-8.84-3.8-9.4-4.37C408.35,527.75,410.85,525.53,419.64,520.12z"/>
			<path class="st1" d="M407.24,500.22c0.04-12.28,0.41-22.51,0.8-22.74c0.39-0.24,8.71,3.63,18.48,8.59
				c21.66,10.98,21.57,10.81,9.4,18.34c-4.57,2.83-12.59,7.93-17.82,11.32c-5.23,3.4-9.84,6.32-10.23,6.49
				C407.48,522.41,407.19,512.51,407.24,500.22z"/>
			<path class="st1" d="M407.48,433.18c0.03-8.82,0.38-16.22,0.77-16.44c0.39-0.24,8.9,3.62,18.91,8.57
				c13.12,6.48,18.06,9.37,17.68,10.33c-0.29,0.73-4.65,2.88-9.71,4.78c-5.06,1.9-12.92,4.92-17.48,6.72
				c-4.55,1.81-8.72,3.01-9.26,2.67C407.79,449.43,407.45,443.19,407.48,433.18z"/>
			<path class="st1" d="M417.4,267.05c8.44-3.89,10.99-4.09,17.71-1.43l5.65,2.23l1.08,7.99c2.32,17.13,2.45,15.55-1.76,20.79
				c-2.32,2.89-4.55,4.74-5.72,4.73c-2.28-0.01-13.59,2.4-20.1,4.27c-2.54,0.72-5,1.08-5.46,0.8c-0.47-0.3-0.83-7.95-0.79-17.02
				C408.08,270.46,407.62,271.55,417.4,267.05z"/>
		</g>
	</g>
</g>
</svg>
